<svg width="200" height="200" viewBox="0 0 200 200" fill="none" xmlns="http://www.w3.org/2000/svg">
<path d="M63.08 115.55C82.95 115.92 104.11 127.21 120.73 138.04C125.963 141.447 130.477 144.933 134.27 148.5C134.53 148.747 134.797 148.76 135.07 148.54L148.02 138.19C148.59 137.737 149.302 137.49 150.04 137.49C155.1 137.51 160.267 137.51 165.54 137.49C168.98 137.477 171.547 137.913 173.24 138.8C177.293 140.94 178.76 144.75 177.64 150.23C177.573 150.55 177.7 150.76 178.02 150.86C193.65 155.84 198.91 174.57 187.83 186.83C182.73 192.47 176.6 193.7 168.53 193.73C161.063 193.757 153.593 193.767 146.12 193.76C144.193 193.76 142.333 193.417 140.54 192.73C107.24 179.997 73.94 167.273 40.64 154.56C39.1467 153.987 36.8233 153.363 33.67 152.69C23.8367 150.597 17.9133 144.577 15.9 134.63C15.4533 132.41 14.88 130.37 14.18 128.51C13.1 125.637 12.5533 123.217 12.54 121.25C12.4933 112.917 12.4767 104.583 12.49 96.25C12.5 89 8.80001 81.58 7.57001 75.65C5.77001 66.93 5.76001 58.1367 7.54001 49.27C7.96001 47.17 9.14001 43.8367 11.08 39.27C12.79 35.24 12.34 29.54 13.01 26.25C16.14 10.87 32.44 2.06998 47.16 8.24998C56.98 12.38 62.36 21.11 62.46 32C62.51 37.84 66.29 43.62 67.18 47.55C70.1667 60.7033 69.1567 73.4833 64.15 85.89C63.33 87.91 62.86 90.7833 62.74 94.51C62.5267 101.323 62.4467 108.14 62.5 114.96C62.5067 115.347 62.7 115.543 63.08 115.55ZM44.42 110.52C44.7645 109.951 45.3099 109.531 45.9486 109.344C46.5873 109.157 47.2728 109.216 47.87 109.51L55.63 113.37C56.03 113.57 56.23 113.447 56.23 113C56.29 104.5 55.11 92.73 57.82 85.07C59.32 80.82 61.07 76.48 61.75 72.2C63.1 63.74 63.09 54.04 59.93 45.94C58.23 41.57 56.36 37.78 56.22 32.59C56.14 29.5633 55.8833 27.3533 55.45 25.96C49.92 8.14998 25.46 7.96999 19.63 25.68C17.97 30.73 19.1 36.8 16.72 42.01C14.8267 46.1566 13.58 50.1667 12.98 54.04C11.79 61.81 12.33 71.18 14.98 78.96C17.05 85.06 18.79 90.79 18.76 96.75C18.7267 104.83 18.7367 112.913 18.79 121C18.8033 122.753 19.41 125.04 20.61 127.86C21.23 129.32 21.6867 130.98 21.98 132.84C23.2267 140.673 27.7 145.283 35.4 146.67C38.0867 147.15 40.0933 147.647 41.42 148.16C74.82 160.92 108.217 173.69 141.61 186.47C143.37 187.143 145.187 187.48 147.06 187.48C155.453 187.487 163.85 187.417 172.25 187.27C176.943 187.19 180.86 185.367 184 181.8C184.042 181.753 184.07 181.695 184.08 181.632C184.09 181.57 184.082 181.506 184.057 181.448C184.031 181.39 183.99 181.341 183.937 181.305C183.885 181.27 183.823 181.251 183.76 181.25H162.01C161.683 181.25 161.36 181.186 161.059 181.06C160.757 180.935 160.483 180.751 160.253 180.52C160.022 180.289 159.84 180.014 159.716 179.712C159.592 179.41 159.529 179.086 159.53 178.76V177.99C159.537 175.997 160.537 175 162.53 175H186.47C187.117 175 187.44 174.677 187.44 174.03V169.72C187.44 169.463 187.338 169.216 187.156 169.034C186.974 168.852 186.727 168.75 186.47 168.75H162.31C161.903 168.75 161.5 168.666 161.127 168.501C160.754 168.337 160.42 168.096 160.146 167.795C159.872 167.493 159.664 167.138 159.536 166.751C159.407 166.365 159.361 165.955 159.4 165.55L159.46 164.9C159.522 164.243 159.827 163.633 160.316 163.189C160.804 162.745 161.44 162.5 162.1 162.5H183.74C184.18 162.5 184.257 162.33 183.97 161.99C180.17 157.45 176.07 156.32 169.85 156.28C165.243 156.247 160.567 156.23 155.82 156.23C155.162 156.23 154.528 155.984 154.043 155.539C153.558 155.095 153.258 154.485 153.2 153.83L153.15 153.19C153.114 152.786 153.162 152.379 153.292 151.995C153.422 151.611 153.63 151.258 153.904 150.959C154.178 150.66 154.511 150.421 154.882 150.257C155.253 150.094 155.654 150.01 156.06 150.01L169.23 149.99C169.861 149.988 170.468 149.751 170.934 149.326C171.399 148.901 171.69 148.318 171.75 147.69L171.82 146.93C171.859 146.527 171.813 146.121 171.686 145.736C171.558 145.352 171.352 144.999 171.08 144.7C170.807 144.4 170.476 144.161 170.105 143.997C169.735 143.834 169.335 143.749 168.93 143.75H151.52C151.233 143.75 150.98 143.837 150.76 144.01C146.22 147.637 141.68 151.263 137.14 154.89C134.76 156.79 133.5 156.73 131.33 154.47C128.983 152.03 126.443 149.803 123.71 147.79C110.063 137.75 95.2467 129.973 79.26 124.46C73.09 122.34 67.49 121.92 61.15 121.88C56.48 121.84 49.53 117.35 45.32 115.14C44.9602 114.95 44.6431 114.688 44.3881 114.371C44.1331 114.053 43.9455 113.687 43.8369 113.295C43.7283 112.903 43.701 112.492 43.7565 112.089C43.8121 111.686 43.9494 111.298 44.16 110.95L44.42 110.52Z" fill="black"/>
</svg>
