<svg width="200" height="200" viewBox="0 0 200 200" fill="none" xmlns="http://www.w3.org/2000/svg">
<g clip-path="url(#clip0_5727_57875)">
<path d="M78.11 0H79.03C81.19 0.97 81.21 2.56 79.7 4.18C71.06 13.44 58.62 17.28 47.01 21.35C27.83 28.0633 16.23 41.45 12.21 61.51C10.4833 70.15 10.9767 79.4133 13.69 89.3C13.7813 89.6314 13.7637 89.9852 13.64 90.31C5.08667 112.13 2.51 134.687 5.91 157.98C6.0027 158.623 5.86744 159.278 5.52769 159.831C5.18793 160.385 4.66513 160.802 4.05 161.01L3.71 161.12C3.49246 161.193 3.2612 161.217 3.03338 161.19C2.80556 161.162 2.58702 161.084 2.39396 160.961C2.2009 160.838 2.03827 160.674 1.91814 160.48C1.79801 160.286 1.72345 160.067 1.7 159.84L0 143.63V133.21C0.66 118.31 3.66333 103.943 9.01 90.11C9.13 89.7967 9.15 89.4767 9.07 89.15C1.54 59.39 13.8 28.92 43.76 18C53.63 14.4 68.17 10.07 74.97 2.99C76.5167 1.37667 77.5633 0.38 78.11 0Z" fill="black"/>
<path d="M200 131.32V147.49L198.64 159.19C198.44 160.883 197.507 161.547 195.84 161.18L195.43 161.09C194.967 160.989 194.56 160.715 194.29 160.323C194.021 159.932 193.91 159.451 193.98 158.98C197.507 135.427 194.953 112.603 186.32 90.51C186.213 90.2233 186.2 89.93 186.28 89.63C193.34 64.01 184.9 37.34 160.54 24.74C157.913 23.38 151.917 21.1133 142.55 17.94C134.15 15.09 125.86 10.55 119.78 4.03001C119.583 3.81821 119.431 3.56771 119.336 3.29439C119.24 3.02107 119.203 2.7309 119.225 2.44227C119.248 2.15364 119.33 1.87284 119.467 1.61769C119.604 1.36253 119.792 1.13857 120.02 0.960011L120.31 0.730011C120.642 0.468248 121.059 0.339488 121.479 0.369104C121.899 0.398719 122.292 0.584561 122.58 0.890011C135.6 14.68 154.11 14.59 168.91 24.75C189.91 39.15 197.16 65.33 191.1 89.48C191.041 89.7344 191.059 89.9989 191.15 90.24C196.143 103.467 199.093 117.16 200 131.32Z" fill="black"/>
<path d="M51.86 48.5C38.02 63.75 37.78 86.27 41.66 105.13C41.66 105.137 42.5866 108.717 44.44 115.87C51.26 142.27 49.32 172.31 44.71 198.39C44.6701 198.615 44.5845 198.83 44.4584 199.02C44.3322 199.211 44.1681 199.374 43.9762 199.5C43.7843 199.625 43.5686 199.71 43.3423 199.75C43.116 199.79 42.8838 199.783 42.66 199.73L42.15 199.6C40.7033 199.26 40.1066 198.36 40.36 196.9C43.9733 175.893 45.1066 155.76 43.76 136.5C43.23 128.94 41.66 122.82 39.1 113.32C33.12 91.14 31.84 64.32 48.3 46.07C49.2333 45.0367 50.2333 44.9667 51.3 45.86L51.7 46.19C51.866 46.3296 52.0023 46.5012 52.1007 46.6943C52.1991 46.8875 52.2575 47.0982 52.2724 47.314C52.2874 47.5297 52.2585 47.746 52.1877 47.9498C52.1168 48.1536 52.0053 48.3408 51.86 48.5Z" fill="black"/>
<path d="M157.73 200C157.637 200 157.54 200 157.44 200C156.12 199.6 155.4 199.03 155.14 197.58C151.567 177.353 150.347 157.66 151.48 138.5C151.96 130.22 153.5 122.93 156.12 113.39C161.9 92.37 163.83 66.08 148.14 48.65C147.855 48.3328 147.703 47.9182 147.716 47.4931C147.729 47.068 147.906 46.6655 148.21 46.37L148.53 46.07C149.643 44.9833 150.703 45.0333 151.71 46.22C166.29 63.38 167.01 86.68 162.07 107.7C160.44 114.67 158.15 121.95 157.14 128.52C153.69 150.86 155.86 173.7 159.47 197.74C159.63 198.8 159.05 199.553 157.73 200Z" fill="black"/>
<path d="M91.5601 105.27C80.4301 112.38 65.2401 113.25 52.7001 109.86C51.1934 109.453 50.6868 108.51 51.1801 107.03L51.2901 106.7C51.442 106.25 51.761 105.876 52.1803 105.656C52.5996 105.436 53.0868 105.388 53.5401 105.52C65.9601 109.073 77.8334 107.803 89.1601 101.71C90.4468 101.017 91.4001 101.333 92.0201 102.66L92.2101 103.05C92.3897 103.434 92.4229 103.871 92.3033 104.28C92.1837 104.688 91.9196 105.04 91.5601 105.27Z" fill="black"/>
<path d="M114.11 103.76C124.203 108.1 134.607 108.673 145.32 105.48C145.738 105.355 146.188 105.395 146.577 105.592C146.966 105.79 147.264 106.129 147.41 106.54L147.59 107.03C148.117 108.517 147.62 109.463 146.1 109.87C132.793 113.41 120.067 112.047 107.92 105.78C106.673 105.133 106.297 104.153 106.79 102.84L106.94 102.45C107.016 102.25 107.132 102.068 107.28 101.913C107.428 101.759 107.606 101.637 107.802 101.554C107.998 101.471 108.209 101.428 108.422 101.429C108.635 101.43 108.845 101.475 109.04 101.56C110.913 102.373 112.603 103.107 114.11 103.76Z" fill="black"/>
<path d="M100.01 124.8H99.97C98.7605 124.8 97.78 125.78 97.78 126.99V189.79C97.78 190.999 98.7605 191.98 99.97 191.98H100.01C101.22 191.98 102.2 190.999 102.2 189.79V126.99C102.2 125.78 101.22 124.8 100.01 124.8Z" fill="black"/>
<path d="M175.61 160.4C175.803 160.789 175.842 161.237 175.719 161.652C175.597 162.068 175.322 162.421 174.95 162.64L174.56 162.88C173.267 163.653 172.283 163.37 171.61 162.03C167.297 153.463 163.72 144.59 160.88 135.41C160.806 135.173 160.78 134.924 160.804 134.677C160.829 134.429 160.903 134.19 161.022 133.971C161.142 133.753 161.304 133.561 161.5 133.406C161.695 133.251 161.92 133.137 162.16 133.07L162.47 132.98C163.857 132.593 164.76 133.087 165.18 134.46C167.94 143.393 171.417 152.04 175.61 160.4Z" fill="black"/>
<path d="M28.2401 162.25C28.0203 162.673 27.653 163.001 27.2084 163.171C26.7638 163.341 26.2731 163.34 25.8301 163.17L25.1701 162.91C24.9292 162.818 24.7105 162.676 24.5284 162.494C24.3462 162.311 24.2048 162.092 24.1132 161.85C24.0216 161.609 23.982 161.35 23.997 161.091C24.012 160.833 24.0812 160.58 24.2001 160.35C28.3668 152.283 31.8001 143.917 34.5001 135.25C34.643 134.795 34.9594 134.415 35.3806 134.193C35.8018 133.97 36.2939 133.922 36.7501 134.06L37.1701 134.18C38.5834 134.607 39.0701 135.527 38.6301 136.94C35.8901 145.673 32.4268 154.11 28.2401 162.25Z" fill="black"/>
<path d="M110.26 137.56C115.493 139.373 120.65 139.21 125.73 137.07C126.151 136.892 126.625 136.887 127.049 137.055C127.474 137.223 127.816 137.552 128 137.97L128.19 138.39C128.763 139.683 128.397 140.603 127.09 141.15C121.03 143.69 114.9 143.87 108.7 141.69C108.279 141.543 107.924 141.25 107.698 140.863C107.473 140.477 107.392 140.022 107.47 139.58L107.55 139.15C107.601 138.856 107.716 138.578 107.886 138.333C108.056 138.088 108.278 137.883 108.535 137.732C108.793 137.58 109.081 137.487 109.378 137.457C109.676 137.428 109.977 137.463 110.26 137.56Z" fill="black"/>
<path d="M74.33 137.23C79.3833 139.297 84.5167 139.49 89.73 137.81C91.1167 137.363 92.0667 137.823 92.58 139.19L92.69 139.48C92.7746 139.705 92.8125 139.944 92.8015 140.184C92.7905 140.424 92.7308 140.659 92.626 140.876C92.5213 141.092 92.3736 141.284 92.192 141.441C92.0105 141.599 91.7988 141.717 91.57 141.79C85.3967 143.75 79.2767 143.633 73.21 141.44C72.9436 141.343 72.6994 141.194 72.4916 141.002C72.2838 140.809 72.1167 140.577 72.0001 140.319C71.8836 140.061 71.82 139.782 71.8131 139.499C71.8062 139.215 71.8562 138.934 71.96 138.67L72.17 138.15C72.2517 137.947 72.3725 137.762 72.5255 137.606C72.6785 137.449 72.8606 137.325 73.0613 137.24C73.2621 137.154 73.4775 137.109 73.6952 137.108C73.913 137.106 74.1287 137.148 74.33 137.23Z" fill="black"/>
<path d="M125.86 152.84C126.071 152.753 126.297 152.71 126.525 152.714C126.753 152.718 126.978 152.769 127.184 152.864C127.391 152.959 127.576 153.095 127.726 153.265C127.877 153.435 127.991 153.634 128.06 153.85L128.2 154.26C128.647 155.633 128.2 156.587 126.86 157.12C120.82 159.553 114.74 159.66 108.62 157.44C108.192 157.287 107.837 156.98 107.624 156.578C107.411 156.177 107.356 155.71 107.47 155.27L107.6 154.77C107.973 153.35 108.85 152.88 110.23 153.36C115.53 155.18 120.74 155.007 125.86 152.84Z" fill="black"/>
<path d="M74.2699 153.02C79.4366 155.127 84.6799 155.293 89.9999 153.52C90.4986 153.356 91.042 153.396 91.5108 153.632C91.9796 153.869 92.3354 154.281 92.4999 154.78L92.5899 155.03C92.6821 155.305 92.7179 155.595 92.695 155.884C92.6721 156.173 92.591 156.455 92.4567 156.713C92.3223 156.97 92.1374 157.198 91.9129 157.383C91.6884 157.568 91.4289 157.707 91.1499 157.79C85.0899 159.59 79.0966 159.397 73.1699 157.21C71.9166 156.75 71.5066 155.89 71.9399 154.63L72.1599 153.98C72.2282 153.774 72.3383 153.585 72.4834 153.424C72.6285 153.262 72.8055 153.133 73.0034 153.043C73.2013 152.953 73.4159 152.904 73.6337 152.9C73.8516 152.896 74.0682 152.937 74.2699 153.02Z" fill="black"/>
<path d="M125.86 168.84C126.071 168.753 126.297 168.71 126.525 168.714C126.753 168.718 126.978 168.769 127.185 168.864C127.391 168.959 127.576 169.095 127.727 169.265C127.877 169.435 127.991 169.634 128.06 169.85L128.2 170.26C128.647 171.633 128.2 172.587 126.86 173.12C120.84 175.547 114.78 175.66 108.68 173.46C108.258 173.31 107.904 173.014 107.681 172.625C107.459 172.236 107.384 171.78 107.47 171.34L107.54 170.96C107.853 169.387 108.77 168.857 110.29 169.37C115.57 171.177 120.76 171 125.86 168.84Z" fill="black"/>
<path d="M74.2801 169.02C79.4401 171.127 84.6801 171.293 90.0001 169.52C90.2472 169.438 90.5078 169.406 90.7673 169.424C91.0267 169.443 91.2797 169.512 91.5119 169.628C91.7441 169.744 91.9509 169.905 92.1204 170.101C92.29 170.297 92.419 170.524 92.5001 170.77L92.5901 171.03C92.6823 171.305 92.718 171.595 92.6952 171.884C92.6723 172.173 92.5912 172.455 92.4569 172.713C92.3225 172.97 92.1376 173.198 91.9131 173.383C91.6886 173.568 91.4291 173.707 91.1501 173.79C85.0901 175.59 79.0935 175.397 73.1601 173.21C71.9135 172.75 71.5068 171.89 71.9401 170.63L72.1601 169.98C72.2292 169.775 72.34 169.586 72.4857 169.425C72.6314 169.265 72.8089 169.135 73.0074 169.045C73.2059 168.956 73.4212 168.907 73.64 168.903C73.8589 168.898 74.0767 168.938 74.2801 169.02Z" fill="black"/>
</g>
<defs>
<clipPath id="clip0_5727_57875">
<rect width="200" height="200" fill="white"/>
</clipPath>
</defs>
</svg>
