<svg width="225" height="225" viewBox="0 0 225 225" fill="none" xmlns="http://www.w3.org/2000/svg">
<g clip-path="url(#clip0_5723_43827)">
<path d="M162.36 194.16C163.127 192.7 162.687 191.967 161.04 191.96C149.493 191.9 139.477 188.653 130.99 182.22C122.62 175.87 124.78 168.1 127.28 159.27C132.887 139.41 138.73 119.62 144.81 99.9C146.597 94.1067 148.573 88.38 150.74 82.72C152.72 77.55 150.84 74.43 147.78 70.71C144.81 67.08 144 62.12 142.22 58.01C137.467 46.9767 131.037 36.83 122.93 27.57C121.69 26.15 121.737 24.7734 123.07 23.44L123.54 22.96C123.748 22.7537 123.996 22.5915 124.269 22.4834C124.541 22.3752 124.833 22.3233 125.125 22.3308C125.418 22.3383 125.705 22.405 125.971 22.5269C126.236 22.6488 126.474 22.8233 126.67 23.04C137.703 35.2534 145.833 49.1 151.06 64.58C151.5 65.88 151.78 66.6 152.79 67.68C158.04 73.29 158.3 80.21 155.4 87.1C154.493 89.2467 153.88 90.8234 153.56 91.83C146.94 112.39 139.493 137.277 131.22 166.49C129.49 172.6 131.66 175.9 136.83 179.26C143.19 183.407 150.197 185.63 157.85 185.93C161.183 186.057 163.383 186.407 164.45 186.98C171.31 190.66 168.32 199.16 162.53 201.54C161.07 202.147 158.513 202.453 154.86 202.46C140.36 202.487 125.863 202.48 111.37 202.44C104.16 202.42 98.3 201.53 94.8 195.44C92.07 190.69 93.89 186.46 96.51 181.32C105.79 163.19 107.59 142.48 104.5 123C102.55 110.75 102.81 98.91 110.32 88.82C111.947 86.6334 113.1 84.7434 113.78 83.15C113.915 82.8358 113.926 82.4819 113.81 82.16C112.21 77.58 106.95 75.59 103.31 72.91C91.26 64.02 77.72 54.72 67.38 44.62C62.79 40.14 59.61 32.3 56.71 26.4C56.4613 25.8935 56.3941 25.3167 56.5197 24.7654C56.6452 24.2141 56.9559 23.7217 57.4 23.37L57.8 23.05C58.1004 22.8098 58.4501 22.6386 58.8242 22.5486C59.1984 22.4586 59.5881 22.452 59.9657 22.5293C60.3433 22.6065 60.6997 22.7657 61.0097 22.9956C61.3197 23.2256 61.5758 23.5206 61.76 23.86C63.72 27.48 65.5433 30.9634 67.23 34.31C69.82 39.45 74.48 43.39 78.59 46.66C94.3433 59.2134 104.42 66.89 108.82 69.69C114.98 73.61 121.45 77.79 118.97 85.63C118.77 86.27 117.39 88.5434 114.83 92.45C109.583 100.463 107.953 109.73 109.94 120.25C111.04 126.083 111.557 133.583 111.49 142.75C111.37 159.41 107.13 173.39 99.55 188.05C96.99 193.01 104.26 196.92 108.5 196.89C124.713 196.79 141.407 196.717 158.58 196.67C160.22 196.663 161.423 195.933 162.19 194.48L162.36 194.16Z" fill="black"/>
</g>
<defs>
<clipPath id="clip0_5723_43827">
<rect width="225" height="225" fill="white"/>
</clipPath>
</defs>
</svg>
