<svg width="200" height="200" viewBox="0 0 200 200" fill="none" xmlns="http://www.w3.org/2000/svg">
<g clip-path="url(#clip0_5727_57871)">
<path d="M144.32 172.587C145.001 171.289 144.61 170.637 143.147 170.631C132.883 170.578 123.979 167.692 116.436 161.973C108.996 156.329 110.916 149.422 113.138 141.573C118.121 123.92 123.316 106.329 128.72 88.8C130.308 83.6504 132.065 78.56 133.991 73.5289C135.751 68.9333 134.08 66.16 131.36 62.8533C128.72 59.6267 128 55.2178 126.418 51.5645C122.193 41.757 116.477 32.7378 109.271 24.5067C108.169 23.2445 108.21 22.0208 109.396 20.8356L109.813 20.4089C109.999 20.2255 110.219 20.0813 110.461 19.9852C110.703 19.8891 110.962 19.8429 111.222 19.8496C111.482 19.8562 111.738 19.9155 111.974 20.0239C112.21 20.1322 112.422 20.2874 112.596 20.48C122.403 31.3363 129.63 43.6445 134.276 57.4045C134.667 58.56 134.916 59.2 135.813 60.16C140.48 65.1467 140.711 71.2978 138.133 77.4222C137.327 79.3304 136.782 80.7319 136.498 81.6267C130.613 99.9022 123.994 122.024 116.64 147.991C115.102 153.422 117.031 156.356 121.627 159.342C127.28 163.028 133.508 165.004 140.311 165.271C143.274 165.384 145.23 165.695 146.178 166.204C152.276 169.476 149.618 177.031 144.471 179.147C143.173 179.686 140.901 179.959 137.653 179.964C124.764 179.988 111.878 179.982 98.9955 179.947C92.5866 179.929 87.3777 179.138 84.2666 173.724C81.84 169.502 83.4577 165.742 85.7866 161.173C94.0355 145.058 95.6355 126.649 92.8888 109.333C91.1555 98.4445 91.3866 87.92 98.0622 78.9511C99.5081 77.0074 100.533 75.3274 101.138 73.9111C101.258 73.6318 101.267 73.3172 101.164 73.0311C99.7422 68.96 95.0666 67.1911 91.8311 64.8089C81.12 56.9067 69.0844 48.64 59.8933 39.6622C55.8133 35.68 52.9866 28.7111 50.4088 23.4667C50.1878 23.0165 50.1281 22.5037 50.2397 22.0137C50.3513 21.5237 50.6274 21.086 51.0222 20.7733L51.3777 20.4889C51.6448 20.2753 51.9556 20.1232 52.2882 20.0432C52.6208 19.9632 52.9672 19.9573 53.3028 20.026C53.6384 20.0947 53.9552 20.2362 54.2308 20.4405C54.5064 20.6449 54.734 20.9072 54.8977 21.2089C56.64 24.4267 58.2607 27.523 59.76 30.4978C62.0622 35.0667 66.2044 38.5689 69.8577 41.4756C83.8607 52.6341 92.8177 59.4578 96.7288 61.9467C102.204 65.4311 107.956 69.1467 105.751 76.1156C105.573 76.6845 104.347 78.7052 102.071 82.1778C97.4074 89.3008 95.9585 97.5378 97.7244 106.889C98.7022 112.074 99.1614 118.741 99.1022 126.889C98.9955 141.698 95.2266 154.124 88.4888 167.156C86.2133 171.564 92.6755 175.04 96.4444 175.013C110.856 174.924 125.695 174.859 140.96 174.818C142.418 174.812 143.487 174.163 144.169 172.871L144.32 172.587Z" fill="black"/>
</g>
<defs>
<clipPath id="clip0_5727_57871">
<rect width="200" height="200" fill="white"/>
</clipPath>
</defs>
</svg>
