<svg width="200" height="200" viewBox="0 0 200 200" fill="none" xmlns="http://www.w3.org/2000/svg">
<g clip-path="url(#clip0_5727_57905)">
<path d="M200 36.1757V164.133C196.912 184.114 181.202 198.622 161.012 200H39.9144C20.646 198.651 4.88356 185.031 1.35862 166.104C0.934233 163.827 0.720457 160.678 0.71729 156.656C0.707788 119.006 0.709372 81.3555 0.72204 43.7054C0.72204 39.6326 0.927899 36.4798 1.33962 34.247C4.52727 16.9026 18.4703 3.56289 35.7767 0.855047C37.9461 0.516172 41.1021 0.348317 45.2446 0.351484C81.9034 0.360986 118.562 0.360986 155.221 0.351484C159.585 0.351484 162.747 0.487668 164.708 0.760036C183.216 3.33011 197.069 17.7814 200 36.1757ZM137.838 98.2802C137.848 98.2862 137.857 98.2944 137.863 98.304C137.869 98.3137 137.873 98.3247 137.874 98.3361C137.876 98.3476 137.875 98.3592 137.871 98.3701C137.867 98.381 137.861 98.3909 137.853 98.399C134.79 101.576 131.699 104.722 128.58 107.838C127.297 109.121 126.467 110.146 126.09 110.912C123.14 116.907 129.468 123.249 135.254 120.879C136.331 120.439 137.691 119.381 139.335 117.705C144.313 112.632 149.289 107.557 154.261 102.48C156.931 99.7577 157.9 95.6484 155.677 92.551C155.018 91.6326 153.601 90.5478 151.425 89.2969C141.994 83.8717 132.561 78.4497 123.126 73.0308C123.107 73.0182 122.142 72.4117 120.233 71.2113C115.726 68.3768 110.787 67.6642 105.416 69.0736C105.367 69.0863 105.316 69.0808 105.271 69.058C105.226 69.0352 105.192 68.9968 105.173 68.9501L98.6888 51.5486C98.6381 51.4093 98.6555 51.2779 98.741 51.1543C104.397 42.9295 110.068 34.6856 115.753 26.4227C117.663 23.6531 118.684 21.3919 117.53 18.323C115.473 12.836 107.981 11.9952 104.684 16.798C98.2232 26.2074 91.7624 35.6183 85.3016 45.0308C83.6769 47.3966 82.684 49.9714 83.7244 52.8028C87.0118 61.7688 90.3056 70.7252 93.6056 79.6722C93.6627 79.821 93.6674 79.9699 93.6199 80.1187C90.5748 90.1377 87.7909 100.271 84.4988 110.204C77.5661 131.113 70.6302 152.019 63.6912 172.922C62.3167 177.058 62.9532 180.401 65.6009 182.95C70.285 187.458 77.5391 184.988 79.4869 179.102C85.2288 161.74 90.9786 144.393 96.7363 127.059C96.7422 127.041 96.7517 127.024 96.7643 127.009C96.7769 126.995 96.7923 126.983 96.8096 126.975C96.8269 126.966 96.8458 126.961 96.865 126.96C96.8843 126.959 96.9035 126.962 96.9216 126.969C99.9081 128.103 102.986 128.432 106.157 127.957C106.203 127.951 106.249 127.963 106.286 127.989C106.323 128.016 106.348 128.055 106.356 128.1C109.26 144.261 112.171 160.432 115.088 176.613C115.458 178.668 115.857 180.095 116.285 180.893C119.938 187.748 130.394 186.214 131.971 178.589C132.203 177.468 132.139 175.91 131.781 173.914C128.256 154.336 124.732 134.757 121.207 115.178C121.08 114.481 121.116 113.796 121.316 113.121C123.349 106.268 125.384 99.4425 127.42 92.646C127.431 92.6102 127.45 92.5773 127.475 92.5498C127.5 92.5223 127.532 92.5009 127.566 92.4871C127.601 92.4734 127.639 92.4678 127.676 92.4706C127.713 92.4734 127.749 92.4847 127.781 92.5035L137.838 98.2802ZM137.264 53.0688C137.264 49.1555 135.709 45.4024 132.942 42.6352C130.175 39.8681 126.422 38.3135 122.508 38.3135C118.595 38.3135 114.842 39.8681 112.075 42.6352C109.307 45.4024 107.753 49.1555 107.753 53.0688C107.753 55.0065 108.135 56.9253 108.876 58.7155C109.618 60.5057 110.705 62.1323 112.075 63.5024C113.445 64.8726 115.071 65.9595 116.862 66.701C118.652 67.4425 120.571 67.8242 122.508 67.8242C124.446 67.8242 126.365 67.4425 128.155 66.701C129.945 65.9595 131.572 64.8726 132.942 63.5024C134.312 62.1323 135.399 60.5057 136.14 58.7155C136.882 56.9253 137.264 55.0065 137.264 53.0688Z" fill="#033D83"/>
</g>
<defs>
<clipPath id="clip0_5727_57905">
<rect width="200" height="200" fill="white"/>
</clipPath>
</defs>
</svg>
