<svg width="200" height="200" viewBox="0 0 200 200" fill="none" xmlns="http://www.w3.org/2000/svg">
<g clip-path="url(#clip0_5727_57922)">
<path d="M200 36.1758V164.138C196.898 184.119 181.202 198.618 161.007 200H39.9861C24.7018 198.711 13.3242 191.609 5.85308 178.694C3.52212 174.662 1.97184 170.196 1.20225 165.297C0.872873 163.204 0.709769 160.044 0.712936 155.82C0.716103 118.686 0.716103 81.5519 0.712936 44.4181C0.712936 40.2439 0.888708 37.0863 1.24025 34.9454C4.13811 17.3017 18.2854 3.50596 35.8911 0.831372C38.0035 0.511499 41.1627 0.351562 45.3685 0.351562C81.9861 0.357897 118.605 0.357897 155.226 0.351562C159.565 0.351562 162.726 0.48933 164.708 0.764864C183.188 3.34919 197.102 17.772 200 36.1758ZM62.8174 56.2423C65.0629 47.6659 67.3163 39.0927 69.5775 30.5226C71.5918 22.8741 61.8483 17.8432 56.96 23.9335C56.2854 24.7728 55.6931 26.16 55.1832 28.095C52.1745 39.5091 49.169 50.9248 46.1666 62.3421C45.283 65.7197 45.34 68.3326 47.606 70.8266C48.6353 71.9604 50.3883 72.9327 52.865 73.7435C61.397 76.5273 70.3566 76.6413 79.2165 76.9881C79.3749 76.9945 79.454 77.0752 79.454 77.2304C79.454 85.7308 79.4588 94.2312 79.4683 102.732C79.4683 103.653 79.587 104.527 79.4968 105.42C77.169 128.686 74.8412 151.951 72.5134 175.216C72.3392 176.987 72.3408 178.304 72.5182 179.169C74.0859 186.817 84.6702 188.143 88.2236 181.397C88.7652 180.364 89.1753 178.462 89.454 175.691C91.2751 157.427 93.1009 139.161 94.9315 120.893C94.9473 120.732 95.0344 120.651 95.1927 120.651L99.9433 120.627C100.14 120.627 100.247 120.725 100.266 120.922C102.135 139.674 103.994 158.325 105.844 176.874C106.087 179.322 106.447 181.042 106.922 182.033C107.774 183.807 109.115 185.078 110.946 185.848C117.107 188.432 123.511 183.786 122.851 177.164C120.545 154.051 118.239 130.936 115.934 107.819C115.617 104.646 115.456 101.485 115.449 98.3373C115.43 91.2368 115.43 84.179 115.449 77.1639C115.449 76.9264 115.57 76.8108 115.81 76.8171C126.295 77.2019 137.587 76.6794 147.535 73.3444C149.166 72.7997 150.374 72.1568 151.159 71.4157C153.454 69.2494 154.281 66.4893 153.44 63.3017C150.219 51.0515 146.962 38.8092 143.668 26.5748C141.587 18.8551 130.642 20.0095 129.62 27.3919C129.468 28.5067 129.642 30.0174 130.143 31.924C132.274 40.0507 134.41 48.1663 136.551 56.2708C136.56 56.3021 136.561 56.335 136.554 56.3668C136.547 56.3985 136.532 56.428 136.51 56.4528C136.488 56.4776 136.461 56.497 136.43 56.5091C136.399 56.5213 136.366 56.5259 136.333 56.5226C129.492 55.677 122.637 55.5851 115.768 56.2471C110.352 56.7696 105.022 57.6105 100.461 59.9953C100.315 60.0713 100.162 60.0998 100 60.0808C99.2117 59.9763 98.7319 60.019 97.9908 59.6532C93.8246 57.62 88.7747 56.7791 84.1999 56.3231C77.1342 55.6168 70.0716 55.6659 63.0122 56.4703C62.838 56.4893 62.7731 56.4133 62.8174 56.2423ZM114.148 40.7221C114.148 36.8088 112.593 33.0557 109.826 30.2885C107.059 27.5213 103.306 25.9668 99.3923 25.9668C95.4789 25.9668 91.7258 27.5213 88.9587 30.2885C86.1915 33.0557 84.6369 36.8088 84.6369 40.7221C84.6369 44.6355 86.1915 48.3886 88.9587 51.1557C91.7258 53.9229 95.4789 55.4775 99.3923 55.4775C103.306 55.4775 107.059 53.9229 109.826 51.1557C112.593 48.3886 114.148 44.6355 114.148 40.7221Z" fill="#AE1F09"/>
</g>
<defs>
<clipPath id="clip0_5727_57922">
<rect width="200" height="200" fill="white"/>
</clipPath>
</defs>
</svg>
