<svg width="200" height="200" viewBox="0 0 200 200" fill="none" xmlns="http://www.w3.org/2000/svg">
<g clip-path="url(#clip0_5727_57917)">
<path d="M200 38.304V162.104C197.739 183.026 181.781 198.613 160.741 200H39.7862C25.7339 198.876 14.8899 192.656 7.2541 181.34C3.93185 176.415 1.821 170.909 0.921558 164.822C0.620687 162.789 0.471835 159.629 0.475003 155.344C0.481337 118.331 0.479753 81.3159 0.470252 44.2992C0.467085 40.2866 0.66661 37.1338 1.06883 34.8408C4.16146 17.1781 18.19 3.17811 36.1235 0.745806C38.0585 0.486107 41.2193 0.356257 45.6056 0.356257C82.0269 0.359424 118.446 0.359424 154.865 0.356257C159.245 0.35309 162.407 0.484523 164.351 0.750556C183.743 3.37763 197.929 18.9121 200 38.304ZM119.458 35.8384C119.458 31.9251 117.904 28.172 115.137 25.4048C112.369 22.6377 108.616 21.0831 104.703 21.0831C100.79 21.0831 97.0366 22.6377 94.2694 25.4048C91.5023 28.172 89.9477 31.9251 89.9477 35.8384C89.9477 39.7518 91.5023 43.5049 94.2694 46.272C97.0366 49.0392 100.79 50.5938 104.703 50.5938C108.616 50.5938 112.369 49.0392 115.137 46.272C117.904 43.5049 119.458 39.7518 119.458 35.8384ZM116.271 84.4465C116.271 84.2438 116.342 84.2169 116.485 84.3658C119.541 87.555 122.606 90.7553 125.682 93.9667C128.214 96.6128 131.762 98.3895 135.42 96.7696C136.18 96.4339 137.077 95.7514 138.109 94.7221C141.409 91.4315 144.706 88.1346 148 84.8313C149.194 83.631 149.964 82.6065 150.309 81.7577C152.736 75.7577 146.599 69.8052 140.675 72.3515C139.835 72.7126 138.814 73.4917 137.61 74.6888C135.894 76.3895 134.206 78.076 132.546 79.7482C132.445 79.8527 132.344 79.8527 132.242 79.7482C126.209 73.4742 120.237 67.2541 114.328 61.0878C112.915 59.6088 111.606 58.3848 110.399 57.4156C105.715 53.6579 99.2208 53.0023 93.8194 55.5677C93.4647 55.7355 91.2921 57.1433 87.3016 59.7909C80.3056 64.4243 73.3159 69.0641 66.3325 73.7102C64.4417 74.9675 63.2129 76.038 62.646 76.9216C61.4821 78.7411 61.1828 81.1496 62.0142 83.2826C62.4227 84.3373 62.6793 85.3966 63.2161 86.342C65.376 90.1552 67.5629 93.9525 69.7767 97.7339C70.8471 99.5677 71.8242 100.796 72.7078 101.42C77.8052 105.026 85.0403 100.423 84.0142 94.2993C83.8495 93.3238 83.1448 91.7624 81.9002 89.6152C80.703 87.5502 79.5154 85.4996 78.3372 83.4632C78.3087 83.4144 78.3002 83.3564 78.3135 83.3015C78.3268 83.2466 78.3608 83.199 78.4085 83.1686L84.6365 79.0498C84.6622 79.0339 84.6917 79.025 84.7219 79.0241C84.7522 79.0233 84.7821 79.0305 84.8087 79.045C84.8353 79.0594 84.8575 79.0807 84.8732 79.1066C84.8888 79.1325 84.8973 79.1621 84.8978 79.1924C84.9136 88.6904 84.9516 98.2391 85.0118 107.838C85.0213 108.912 85.1733 109.962 85.0356 110.998C83.8764 120.002 82.7315 129.028 81.6009 138.076C81.5911 138.162 81.5574 138.243 81.5038 138.311C81.4501 138.379 81.3785 138.431 81.2969 138.461C72.7521 141.628 64.1805 144.809 55.5819 148.005C53.5265 148.765 52.1155 149.466 51.3491 150.109C45.3444 155.112 49.1401 165.183 57.0023 164.974C58.0791 164.942 59.7054 164.523 61.8812 163.715C71.3665 160.193 80.855 156.671 90.3467 153.15C92.6112 152.31 94.1741 151.509 95.0356 150.746C96.5114 149.438 97.376 147.804 97.6294 145.843C98.5827 138.492 99.5217 131.11 100.446 123.696C100.451 123.651 100.472 123.61 100.506 123.58C100.539 123.551 100.582 123.534 100.627 123.534C102.252 123.55 103.838 123.311 105.387 122.817C105.461 122.792 105.541 122.792 105.615 122.817C105.688 122.842 105.752 122.89 105.796 122.955L114.104 135.069C114.212 135.224 114.253 135.395 114.228 135.582C112.736 147.576 111.257 159.571 109.791 171.568C109.531 173.68 109.496 175.218 109.686 176.18C111.017 182.945 119.648 184.85 124.218 180.071C125.409 178.827 126.106 177.368 126.309 175.696C127.952 162.299 129.604 148.901 131.264 135.501C131.435 134.108 131.446 132.923 131.297 131.948C131.072 130.478 130.686 129.341 130.138 128.537C125.653 121.962 121.14 115.376 116.599 108.779C116.385 108.467 116.271 108.096 116.271 107.715V84.4465Z" fill="#EE7400"/>
</g>
<defs>
<clipPath id="clip0_5727_57917">
<rect width="200" height="200" fill="white"/>
</clipPath>
</defs>
</svg>
