<svg width="200" height="200" viewBox="0 0 200 200" fill="none" xmlns="http://www.w3.org/2000/svg">
<g clip-path="url(#clip0_5727_57911)">
<path d="M200 35.9288V164.475C196.703 184.318 181.116 198.694 161.002 200H39.9096C20.3039 198.57 4.40361 184.537 1.24922 165.173C0.894508 162.994 0.717153 159.837 0.717153 155.701C0.713986 118.963 0.712402 82.2249 0.712402 45.487C0.712402 41.1702 0.851753 38.0095 1.13045 36.0048C3.66252 17.8765 17.9333 3.52021 36.0141 0.821871C38.1075 0.508332 41.2635 0.351562 45.482 0.351562C82.1407 0.357897 118.799 0.35948 155.458 0.356313C159.791 0.356313 162.953 0.498831 164.945 0.783867C183.306 3.42045 196.964 17.696 200 35.9288ZM102.114 129.667C102.168 145.154 102.166 160.641 102.109 176.128C102.093 180.451 104.101 183.2 108.133 184.375C109.097 184.656 110.256 184.565 111.287 184.556C114.475 184.513 117.116 182.817 118.38 179.938C118.792 179.004 118.997 177.699 118.997 176.024C119.007 145.91 119.097 115.796 119.14 85.6865C119.14 85.4489 119.213 85.2368 119.358 85.0499C124.692 78.3136 130.054 71.5487 135.444 64.7554C137.653 61.9715 138.427 59.5107 137.434 56.171C134.359 45.7926 131.278 35.4157 128.19 25.0404C127.474 22.6303 126.838 21.0388 126.28 20.2661C125.14 18.6825 123.545 17.7878 121.496 17.582C117.325 17.1639 113.572 19.943 113.273 24.133C113.206 25.0863 113.466 26.5479 114.052 28.5178C116.868 38.0254 119.699 47.5519 122.546 57.0974C122.577 57.2017 122.582 57.3121 122.562 57.4195C122.541 57.5269 122.495 57.6282 122.427 57.715L111.515 71.4917C111.476 71.5413 111.42 71.5746 111.359 71.5852C111.297 71.5957 111.234 71.5827 111.183 71.5487C104.271 67.1592 95.6768 67.601 89.3965 72.9216C89.3685 72.9449 89.3361 72.9623 89.3014 72.973C89.2666 72.9837 89.23 72.9874 89.1938 72.9838C89.1576 72.9803 89.1224 72.9696 89.0903 72.9524C89.0583 72.9352 89.0299 72.9118 89.0069 72.8836L76.9214 57.6247C76.8232 57.498 76.7963 57.3571 76.8407 57.2019C79.7322 47.5487 82.6063 37.8813 85.463 28.1995C86.0014 26.369 86.2168 24.947 86.1091 23.9335C85.3632 17.0594 75.9998 15.1354 72.6316 21.0404C72.3434 21.5471 71.8225 23.0657 71.0687 25.5962C68.0347 35.7878 65.018 45.9842 62.0188 56.1853C61.0069 59.6247 61.7195 61.9003 63.9856 64.7601C70.364 72.8045 76.7377 80.8488 83.1067 88.8931C83.202 89.0128 83.2539 89.1602 83.254 89.3112V112.352C83.254 112.608 83.1725 112.857 83.0212 113.064C78.2294 119.664 73.4757 126.201 68.7599 132.675C66.0616 136.375 63.8098 141.344 66.6506 145.587C67.2904 146.537 68.7251 147.777 70.9547 149.306C75.9903 152.759 81.0307 156.204 86.0758 159.644C89.0022 161.639 91.2587 162.675 94.5414 161.767C99.9951 160.261 102.423 153.796 99.3775 149.059C98.7504 148.09 97.5612 147.002 95.8098 145.796C92.3925 143.439 88.9721 141.102 85.5485 138.784C85.5231 138.767 85.5015 138.745 85.4848 138.719C85.4681 138.693 85.4568 138.665 85.4515 138.634C85.4461 138.604 85.4469 138.573 85.4538 138.544C85.4607 138.514 85.4735 138.486 85.4915 138.461L93.197 127.862C93.245 127.798 93.3137 127.752 93.3915 127.732C93.4692 127.712 93.5515 127.72 93.6245 127.753C96.2183 128.941 98.9499 129.485 101.819 129.387C102.012 129.381 102.111 129.474 102.114 129.667ZM114.708 50.5701C114.708 46.6555 113.153 42.9012 110.385 40.1331C107.616 37.3651 103.862 35.81 99.9476 35.81C96.0329 35.81 92.2787 37.3651 89.5106 40.1331C86.7425 42.9012 85.1875 46.6555 85.1875 50.5701C85.1875 54.4847 86.7425 58.239 89.5106 61.0071C92.2787 63.7751 96.0329 65.3302 99.9476 65.3302C103.862 65.3302 107.616 63.7751 110.385 61.0071C113.153 58.239 114.708 54.4847 114.708 50.5701Z" fill="#39A935"/>
</g>
<defs>
<clipPath id="clip0_5727_57911">
<rect width="200" height="200" fill="white"/>
</clipPath>
</defs>
</svg>
