<svg width="421" height="422" viewBox="0 0 421 422" fill="none" xmlns="http://www.w3.org/2000/svg">
<g clip-path="url(#clip0_5723_43818)">
<path d="M421 76.6502V346.01C414.47 388.07 381.43 418.59 338.92 421.5H84.17C51.9967 418.787 28.0467 403.837 12.32 376.65C7.41334 368.164 4.15 358.764 2.53 348.45C1.83667 344.044 1.49334 337.394 1.5 328.5C1.50667 250.334 1.50667 172.167 1.5 94.0002C1.5 85.2136 1.87 78.5669 2.61 74.0602C8.71 36.9202 38.49 7.88023 75.55 2.25023C79.9967 1.5769 86.6467 1.24023 95.5 1.24023C172.58 1.25357 249.663 1.25357 326.75 1.24023C335.883 1.24023 342.537 1.53023 346.71 2.11023C385.61 7.55023 414.9 37.9102 421 76.6502ZM132.23 118.89C136.957 100.837 141.7 82.7902 146.46 64.7502C150.7 48.6502 130.19 38.0602 119.9 50.8802C118.48 52.6469 117.233 55.5669 116.16 59.6402C109.827 83.6669 103.5 107.697 97.18 131.73C95.32 138.84 95.44 144.34 100.21 149.59C102.377 151.977 106.067 154.024 111.28 155.73C129.24 161.59 148.1 161.83 166.75 162.56C167.083 162.574 167.25 162.744 167.25 163.07C167.25 180.964 167.26 198.857 167.28 216.75C167.28 218.69 167.53 220.53 167.34 222.41C162.44 271.384 157.54 320.357 152.64 369.33C152.273 373.057 152.277 375.83 152.65 377.65C155.95 393.75 178.23 396.54 185.71 382.34C186.85 380.167 187.713 376.164 188.3 370.33C192.133 331.884 195.977 293.434 199.83 254.98C199.863 254.64 200.047 254.47 200.38 254.47L210.38 254.42C210.793 254.42 211.02 254.627 211.06 255.04C214.993 294.514 218.907 333.774 222.8 372.82C223.313 377.974 224.07 381.594 225.07 383.68C226.863 387.414 229.687 390.09 233.54 391.71C246.51 397.15 259.99 387.37 258.6 373.43C253.747 324.777 248.893 276.12 244.04 227.46C243.373 220.78 243.033 214.127 243.02 207.5C242.98 192.554 242.98 177.697 243.02 162.93C243.02 162.43 243.273 162.187 243.78 162.2C265.85 163.01 289.62 161.91 310.56 154.89C313.993 153.744 316.537 152.39 318.19 150.83C323.02 146.27 324.76 140.46 322.99 133.75C316.21 107.964 309.353 82.1936 302.42 56.4402C298.04 40.1902 275 42.6202 272.85 58.1602C272.53 60.5069 272.897 63.6869 273.95 67.7002C278.437 84.8069 282.933 101.89 287.44 118.95C287.458 119.016 287.46 119.085 287.445 119.152C287.43 119.219 287.398 119.281 287.353 119.333C287.307 119.386 287.25 119.426 287.185 119.452C287.12 119.477 287.05 119.487 286.98 119.48C272.58 117.7 258.15 117.507 243.69 118.9C232.29 120 221.07 121.77 211.47 126.79C211.163 126.95 210.84 127.01 210.5 126.97C208.84 126.75 207.83 126.84 206.27 126.07C197.5 121.79 186.87 120.02 177.24 119.06C162.367 117.574 147.5 117.677 132.64 119.37C132.273 119.41 132.137 119.25 132.23 118.89ZM240.28 86.2202C240.28 77.9826 237.008 70.0824 231.183 64.2575C225.358 58.4326 217.458 55.1602 209.22 55.1602C200.982 55.1602 193.082 58.4326 187.257 64.2575C181.432 70.0824 178.16 77.9826 178.16 86.2202C178.16 94.4579 181.432 102.358 187.257 108.183C193.082 114.008 200.982 117.28 209.22 117.28C217.458 117.28 225.358 114.008 231.183 108.183C237.008 102.358 240.28 94.4579 240.28 86.2202Z" fill="#AE1F09"/>
<path d="M132.64 119.37C147.5 117.677 162.367 117.573 177.24 119.06C186.87 120.02 197.5 121.79 206.27 126.07C207.83 126.84 208.84 126.75 210.5 126.97C210.84 127.01 211.163 126.95 211.47 126.79C221.07 121.77 232.29 120 243.69 118.9C258.15 117.507 272.58 117.7 286.98 119.48C287.05 119.487 287.12 119.477 287.185 119.452C287.25 119.426 287.307 119.385 287.353 119.333C287.398 119.281 287.43 119.219 287.445 119.152C287.46 119.085 287.458 119.016 287.44 118.95C282.933 101.89 278.437 84.8068 273.95 67.7001C272.897 63.6868 272.53 60.5068 272.85 58.1601C275 42.6201 298.04 40.1901 302.42 56.4401C309.353 82.1935 316.21 107.963 322.99 133.75C324.76 140.46 323.02 146.27 318.19 150.83C316.537 152.39 313.993 153.743 310.56 154.89C289.62 161.91 265.85 163.01 243.78 162.2C243.273 162.187 243.02 162.43 243.02 162.93C242.98 177.697 242.98 192.553 243.02 207.5C243.033 214.127 243.373 220.78 244.04 227.46C248.893 276.12 253.747 324.777 258.6 373.43C259.99 387.37 246.51 397.15 233.54 391.71C229.687 390.09 226.863 387.413 225.07 383.68C224.07 381.593 223.313 377.973 222.8 372.82C218.907 333.773 214.993 294.513 211.06 255.04C211.02 254.627 210.793 254.42 210.38 254.42L200.38 254.47C200.047 254.47 199.863 254.64 199.83 254.98C195.977 293.433 192.133 331.883 188.3 370.33C187.713 376.163 186.85 380.167 185.71 382.34C178.23 396.54 155.95 393.75 152.65 377.65C152.277 375.83 152.273 373.057 152.64 369.33C157.54 320.357 162.44 271.383 167.34 222.41C167.53 220.53 167.28 218.69 167.28 216.75C167.26 198.857 167.25 180.963 167.25 163.07C167.25 162.743 167.083 162.573 166.75 162.56C148.1 161.83 129.24 161.59 111.28 155.73C106.067 154.023 102.377 151.977 100.21 149.59C95.44 144.34 95.32 138.84 97.18 131.73C103.5 107.697 109.827 83.6668 116.16 59.6401C117.233 55.5668 118.48 52.6468 119.9 50.8801C130.19 38.0601 150.7 48.6501 146.46 64.7501C141.7 82.7901 136.957 100.837 132.23 118.89C132.137 119.25 132.273 119.41 132.64 119.37Z" fill="white"/>
<path d="M209.22 117.28C226.374 117.28 240.28 103.374 240.28 86.2202C240.28 69.0662 226.374 55.1602 209.22 55.1602C192.066 55.1602 178.16 69.0662 178.16 86.2202C178.16 103.374 192.066 117.28 209.22 117.28Z" fill="white"/>
</g>
<defs>
<clipPath id="clip0_5723_43818">
<rect width="421" height="421" fill="white" transform="translate(0 0.5)"/>
</clipPath>
</defs>
</svg>
