<svg width="421" height="421" viewBox="0 0 421 421" fill="none" xmlns="http://www.w3.org/2000/svg">
<g clip-path="url(#clip0_5723_43797)">
<path d="M421 76.1498V345.5C414.5 387.56 381.43 418.1 338.93 421H84.02C43.46 418.16 10.28 389.49 2.85999 349.65C1.96666 344.857 1.51666 338.227 1.50999 329.76C1.48999 250.507 1.49332 171.253 1.51999 91.9998C1.51999 83.4265 1.95332 76.7898 2.81999 72.0898C9.52999 35.5798 38.88 7.49984 75.31 1.79984C79.8766 1.08651 86.52 0.733172 95.24 0.739839C172.407 0.759839 249.573 0.759839 326.74 0.739839C335.927 0.739839 342.583 1.02651 346.71 1.59984C385.67 7.00984 414.83 37.4298 421 76.1498ZM290.15 206.88C290.171 206.892 290.188 206.91 290.201 206.93C290.215 206.95 290.223 206.973 290.226 206.998C290.229 207.022 290.226 207.046 290.218 207.069C290.21 207.092 290.197 207.113 290.18 207.13C283.733 213.817 277.227 220.44 270.66 227C267.96 229.7 266.213 231.857 265.42 233.47C259.21 246.09 272.53 259.44 284.71 254.45C286.977 253.523 289.84 251.297 293.3 247.77C303.78 237.09 314.253 226.406 324.72 215.72C330.34 209.99 332.38 201.34 327.7 194.82C326.313 192.887 323.33 190.603 318.75 187.97C298.897 176.55 279.04 165.136 259.18 153.73C259.14 153.703 257.11 152.426 253.09 149.9C243.603 143.933 233.207 142.433 221.9 145.4C221.798 145.427 221.689 145.415 221.595 145.367C221.501 145.319 221.428 145.238 221.39 145.14L207.74 108.51C207.633 108.217 207.67 107.94 207.85 107.68C219.757 90.3665 231.693 73.0132 243.66 55.6198C247.68 49.7898 249.83 45.0298 247.4 38.5698C243.07 27.0198 227.3 25.2498 220.36 35.3598C206.76 55.1665 193.16 74.9765 179.56 94.7898C176.14 99.7698 174.05 105.19 176.24 111.15C183.16 130.023 190.093 148.877 197.04 167.71C197.16 168.023 197.17 168.336 197.07 168.65C190.66 189.74 184.8 211.07 177.87 231.98C163.277 275.993 148.677 320 134.07 364C131.177 372.707 132.517 379.743 138.09 385.11C147.95 394.6 163.22 389.4 167.32 377.01C179.407 340.463 191.51 303.947 203.63 267.46C203.642 267.421 203.662 267.385 203.689 267.355C203.715 267.324 203.748 267.299 203.784 267.281C203.821 267.264 203.86 267.254 203.901 267.252C203.941 267.25 203.982 267.256 204.02 267.27C210.307 269.657 216.787 270.35 223.46 269.35C223.557 269.338 223.654 269.362 223.732 269.418C223.81 269.474 223.863 269.557 223.88 269.65C229.993 303.67 236.12 337.71 242.26 371.77C243.04 376.097 243.88 379.1 244.78 380.78C252.47 395.21 274.48 391.98 277.8 375.93C278.287 373.57 278.153 370.29 277.4 366.09C269.98 324.877 262.56 283.663 255.14 242.45C254.873 240.983 254.95 239.54 255.37 238.12C259.65 223.693 263.933 209.327 268.22 195.02C268.243 194.944 268.282 194.875 268.335 194.817C268.388 194.759 268.454 194.714 268.527 194.685C268.6 194.657 268.679 194.645 268.758 194.651C268.836 194.657 268.912 194.68 268.98 194.72L290.15 206.88ZM288.94 111.71C288.94 103.472 285.668 95.572 279.843 89.7471C274.018 83.9222 266.118 80.6498 257.88 80.6498C249.642 80.6498 241.742 83.9222 235.917 89.7471C230.092 95.572 226.82 103.472 226.82 111.71C226.82 115.789 227.623 119.828 229.184 123.596C230.745 127.364 233.033 130.788 235.917 133.673C238.801 136.557 242.225 138.845 245.994 140.406C249.762 141.966 253.801 142.77 257.88 142.77C261.959 142.77 265.998 141.966 269.766 140.406C273.535 138.845 276.959 136.557 279.843 133.673C282.727 130.788 285.015 127.364 286.576 123.596C288.137 119.828 288.94 115.789 288.94 111.71Z" fill="#033D83"/>
<path d="M290.15 206.88L268.98 194.72C268.912 194.68 268.836 194.657 268.758 194.651C268.679 194.645 268.6 194.656 268.527 194.685C268.454 194.714 268.388 194.759 268.335 194.817C268.282 194.875 268.243 194.944 268.22 195.02C263.933 209.326 259.65 223.693 255.37 238.12C254.95 239.54 254.873 240.983 255.14 242.45C262.56 283.663 269.98 324.876 277.4 366.09C278.153 370.29 278.287 373.57 277.8 375.93C274.48 391.98 252.47 395.21 244.78 380.78C243.88 379.1 243.04 376.096 242.26 371.77C236.12 337.71 229.993 303.67 223.88 269.65C223.863 269.557 223.81 269.473 223.732 269.418C223.654 269.362 223.557 269.338 223.46 269.35C216.787 270.35 210.307 269.656 204.02 267.27C203.982 267.256 203.941 267.249 203.901 267.251C203.861 267.253 203.821 267.264 203.784 267.281C203.748 267.299 203.715 267.324 203.689 267.355C203.662 267.385 203.642 267.421 203.63 267.46C191.51 303.946 179.407 340.463 167.32 377.01C163.22 389.4 147.95 394.6 138.09 385.11C132.517 379.743 131.177 372.706 134.07 364C148.677 320 163.277 275.993 177.87 231.98C184.8 211.07 190.66 189.74 197.07 168.65C197.17 168.336 197.16 168.023 197.04 167.71C190.093 148.876 183.16 130.023 176.24 111.15C174.05 105.19 176.14 99.7698 179.56 94.7898C193.16 74.9765 206.76 55.1665 220.36 35.3598C227.3 25.2498 243.07 27.0198 247.4 38.5698C249.83 45.0298 247.68 49.7898 243.66 55.6198C231.693 73.0131 219.757 90.3665 207.85 107.68C207.67 107.94 207.633 108.216 207.74 108.51L221.39 145.14C221.428 145.238 221.501 145.319 221.595 145.367C221.689 145.415 221.798 145.427 221.9 145.4C233.207 142.433 243.603 143.933 253.09 149.9C257.11 152.426 259.14 153.703 259.18 153.73C279.04 165.136 298.897 176.55 318.75 187.97C323.33 190.603 326.313 192.886 327.7 194.82C332.38 201.34 330.34 209.99 324.72 215.72C314.253 226.406 303.78 237.09 293.3 247.77C289.84 251.296 286.977 253.523 284.71 254.45C272.53 259.44 259.21 246.09 265.42 233.47C266.213 231.856 267.96 229.7 270.66 227C277.227 220.44 283.733 213.816 290.18 207.13C290.197 207.113 290.21 207.092 290.218 207.069C290.226 207.046 290.229 207.022 290.226 206.997C290.223 206.973 290.215 206.95 290.201 206.93C290.188 206.91 290.171 206.892 290.15 206.88Z" fill="white"/>
<path d="M257.88 142.77C275.034 142.77 288.94 128.864 288.94 111.71C288.94 94.5559 275.034 80.6499 257.88 80.6499C240.726 80.6499 226.82 94.5559 226.82 111.71C226.82 128.864 240.726 142.77 257.88 142.77Z" fill="white"/>
</g>
<defs>
<clipPath id="clip0_5723_43797">
<rect width="421" height="421" fill="white"/>
</clipPath>
</defs>
</svg>
