<svg width="421" height="421" viewBox="0 0 421 421" fill="none" xmlns="http://www.w3.org/2000/svg">
<g clip-path="url(#clip0_5723_43790)">
<path d="M421 74.1V347.95C413.28 388.91 380.8 418.33 339.11 421H84.49C55.2633 418.673 32.6133 405.827 16.54 382.46C9.07332 371.593 4.41999 359.43 2.57999 345.97C2.01999 341.87 1.73999 335.217 1.73999 326.01C1.75332 249.09 1.75332 172.173 1.73999 95.26C1.73999 86.2867 2.05332 79.6333 2.67999 75.3C8.20999 37.34 38.28 7.18 76.3 1.68C80.5867 1.06 87.2367 0.75 96.25 0.75C173.25 0.756667 250.25 0.756667 327.25 0.75C336.383 0.75 343.033 1.04333 347.2 1.63C385.32 7.02 414.09 36.33 421 74.1ZM247.75 72.43C247.75 64.1924 244.478 56.2921 238.653 50.4673C232.828 44.6424 224.928 41.37 216.69 41.37C208.452 41.37 200.552 44.6424 194.727 50.4673C188.902 56.2921 185.63 64.1924 185.63 72.43C185.63 80.6676 188.902 88.5679 194.727 94.3927C200.552 100.218 208.452 103.49 216.69 103.49C224.928 103.49 232.828 100.218 238.653 94.3927C244.478 88.5679 247.75 80.6676 247.75 72.43ZM248.69 174.82C252.2 178.17 255.32 182.24 259.27 184.67C261.643 186.137 263.777 187.197 265.67 187.85C275.07 191.097 284.483 194.333 293.91 197.56C297.563 198.813 300.53 199.36 302.81 199.2C316.82 198.25 322.29 180.18 310.93 171.88C309.31 170.7 306.117 169.307 301.35 167.7C293.177 164.947 284.983 162.137 276.77 159.27C276.39 159.143 276.063 158.933 275.79 158.64C264.863 147.247 253.893 135.8 242.88 124.3C231.55 112.47 217.52 106.63 201.43 113.52C199.03 114.547 196.063 116.44 192.53 119.2C176.59 131.68 160.64 144.143 144.68 156.59C140.47 159.87 137.72 162.78 137.07 167.75C136.42 172.79 136.97 180.03 137.01 183.83C137.123 195.137 137.29 206.44 137.51 217.74C137.583 221.58 137.94 224.34 138.58 226.02C143.19 238.21 161.78 238.78 166.76 226.79C167.633 224.69 168.05 221.273 168.01 216.54C167.917 205.527 167.75 194.513 167.51 183.5C167.47 181.733 167.473 179.933 167.52 178.1C167.523 177.96 167.557 177.821 167.621 177.695C167.685 177.569 167.777 177.458 167.89 177.37L181.65 166.63C181.708 166.585 181.777 166.557 181.85 166.549C181.923 166.542 181.996 166.555 182.062 166.587C182.128 166.62 182.183 166.67 182.222 166.732C182.26 166.795 182.28 166.867 182.28 166.94C182.207 183.873 182.213 200.897 182.3 218.01C182.333 224.743 182.08 231.393 181.54 237.96C178.14 279.233 174.707 320.5 171.24 361.76C170.82 366.733 170.787 370.227 171.14 372.24C175.3 396.12 204.41 393.37 206.31 370.25C209.403 332.777 212.513 295.23 215.64 257.61C215.654 257.456 215.725 257.312 215.839 257.205C215.953 257.099 216.103 257.036 216.26 257.03C220.673 256.89 224.887 255.903 228.9 254.07C229.247 253.917 229.543 253.98 229.79 254.26L242.79 268.96C243.086 269.295 243.25 269.729 243.25 270.18C243.25 295.413 243.25 320.707 243.25 346.06C243.25 353.91 244.08 359.67 250.11 364.15C259.48 371.11 273.12 367.7 277.4 357.04C278.3 354.8 278.75 351.54 278.75 347.26C278.757 319.9 278.753 292.537 278.74 265.17C278.74 259.7 277.33 254.24 274 250.46C265.647 241.007 257.25 231.507 248.81 221.96C248.449 221.548 248.25 221.022 248.25 220.48V175.01C248.25 174.603 248.397 174.54 248.69 174.82Z" fill="#813962"/>
<path d="M216.69 103.49C233.844 103.49 247.75 89.5841 247.75 72.4301C247.75 55.2762 233.844 41.3701 216.69 41.3701C199.536 41.3701 185.63 55.2762 185.63 72.4301C185.63 89.5841 199.536 103.49 216.69 103.49Z" fill="white"/>
<path d="M248.25 175.01V220.48C248.25 221.022 248.449 221.548 248.81 221.96C257.25 231.507 265.647 241.007 274 250.46C277.33 254.24 278.74 259.7 278.74 265.17C278.753 292.537 278.757 319.9 278.75 347.26C278.75 351.54 278.3 354.8 277.4 357.04C273.12 367.7 259.48 371.11 250.11 364.15C244.08 359.67 243.25 353.91 243.25 346.06C243.25 320.707 243.25 295.413 243.25 270.18C243.25 269.729 243.086 269.295 242.79 268.96L229.79 254.26C229.543 253.98 229.247 253.917 228.9 254.07C224.887 255.903 220.673 256.89 216.26 257.03C216.103 257.036 215.953 257.099 215.839 257.205C215.725 257.312 215.654 257.456 215.64 257.61C212.513 295.23 209.403 332.777 206.31 370.25C204.41 393.37 175.3 396.12 171.14 372.24C170.787 370.227 170.82 366.733 171.24 361.76C174.707 320.5 178.14 279.233 181.54 237.96C182.08 231.393 182.333 224.743 182.3 218.01C182.213 200.897 182.207 183.873 182.28 166.94C182.28 166.867 182.26 166.795 182.222 166.732C182.183 166.67 182.128 166.62 182.062 166.588C181.996 166.555 181.923 166.542 181.85 166.549C181.777 166.557 181.708 166.585 181.65 166.63L167.89 177.37C167.777 177.458 167.686 177.569 167.621 177.695C167.557 177.821 167.523 177.96 167.52 178.1C167.473 179.933 167.47 181.733 167.51 183.5C167.75 194.513 167.917 205.527 168.01 216.54C168.05 221.273 167.633 224.69 166.76 226.79C161.78 238.78 143.19 238.21 138.58 226.02C137.94 224.34 137.583 221.58 137.51 217.74C137.29 206.44 137.123 195.137 137.01 183.83C136.97 180.03 136.42 172.79 137.07 167.75C137.72 162.78 140.47 159.87 144.68 156.59C160.64 144.143 176.59 131.68 192.53 119.2C196.063 116.44 199.03 114.547 201.43 113.52C217.52 106.63 231.55 112.47 242.88 124.3C253.893 135.8 264.863 147.247 275.79 158.64C276.063 158.933 276.39 159.143 276.77 159.27C284.983 162.137 293.177 164.947 301.35 167.7C306.117 169.307 309.31 170.7 310.93 171.88C322.29 180.18 316.82 198.25 302.81 199.2C300.53 199.36 297.563 198.813 293.91 197.56C284.483 194.333 275.07 191.097 265.67 187.85C263.777 187.197 261.643 186.137 259.27 184.67C255.32 182.24 252.2 178.17 248.69 174.82C248.397 174.54 248.25 174.603 248.25 175.01Z" fill="white"/>
</g>
<defs>
<clipPath id="clip0_5723_43790">
<rect width="421" height="421" fill="white"/>
</clipPath>
</defs>
</svg>
