<svg width="421" height="421" viewBox="0 0 421 421" fill="none" xmlns="http://www.w3.org/2000/svg">
<g clip-path="url(#clip0_5723_43804)">
<path d="M421 75.6302V346.22C414.06 387.99 381.25 418.25 338.91 421H84.01C42.74 417.99 9.27 388.45 2.63 347.69C1.88333 343.104 1.51 336.457 1.51 327.75C1.50333 250.417 1.5 173.084 1.5 95.7502C1.5 86.6636 1.79333 80.0102 2.38 75.7902C7.71 37.6302 37.75 7.41023 75.81 1.73023C80.2167 1.07023 86.86 0.740234 95.74 0.740234C172.907 0.753568 250.073 0.756901 327.24 0.750234C336.36 0.750234 343.017 1.05023 347.21 1.65023C385.86 7.20023 414.61 37.2502 421 75.6302ZM214.95 272.95C215.063 305.55 215.06 338.15 214.94 370.75C214.907 379.85 219.133 385.637 227.62 388.11C229.65 388.7 232.09 388.51 234.26 388.49C240.97 388.4 246.53 384.83 249.19 378.77C250.057 376.804 250.49 374.057 250.49 370.53C250.51 307.14 250.7 243.75 250.79 180.37C250.79 179.87 250.943 179.424 251.25 179.03C262.477 164.85 273.763 150.61 285.11 136.31C289.76 130.45 291.39 125.27 289.3 118.24C282.827 96.3936 276.34 74.5502 269.84 52.7102C268.333 47.6369 266.993 44.2869 265.82 42.6602C263.42 39.3269 260.063 37.4436 255.75 37.0102C246.97 36.1302 239.07 41.9802 238.44 50.8002C238.3 52.8069 238.847 55.8836 240.08 60.0302C246.007 80.0436 251.967 100.097 257.96 120.19C258.025 120.41 258.036 120.642 257.992 120.868C257.949 121.094 257.852 121.308 257.71 121.49L234.74 150.49C234.658 150.595 234.54 150.665 234.411 150.687C234.281 150.709 234.149 150.682 234.04 150.61C219.49 141.37 201.4 142.3 188.18 153.5C188.121 153.549 188.053 153.586 187.98 153.608C187.907 153.631 187.83 153.639 187.753 153.631C187.677 153.624 187.603 153.601 187.536 153.565C187.468 153.529 187.408 153.48 187.36 153.42L161.92 121.3C161.713 121.034 161.657 120.737 161.75 120.41C167.837 100.09 173.887 79.7402 179.9 59.3602C181.033 55.5069 181.487 52.5136 181.26 50.3802C179.69 35.9102 159.98 31.8602 152.89 44.2902C152.283 45.3569 151.187 48.5536 149.6 53.8802C143.213 75.3336 136.863 96.7969 130.55 118.27C128.42 125.51 129.92 130.3 134.69 136.32C148.117 153.254 161.533 170.187 174.94 187.12C175.141 187.372 175.25 187.682 175.25 188V236.5C175.25 237.04 175.078 237.565 174.76 238C164.673 251.894 154.667 265.654 144.74 279.28C139.06 287.07 134.32 297.53 140.3 306.46C141.647 308.46 144.667 311.07 149.36 314.29C159.96 321.557 170.57 328.81 181.19 336.05C187.35 340.25 192.1 342.43 199.01 340.52C210.49 337.35 215.6 323.74 209.19 313.77C207.87 311.73 205.367 309.44 201.68 306.9C194.487 301.94 187.287 297.02 180.08 292.14C180.027 292.104 179.981 292.058 179.946 292.004C179.911 291.95 179.887 291.889 179.876 291.826C179.865 291.762 179.866 291.697 179.881 291.634C179.895 291.572 179.922 291.512 179.96 291.46L196.18 269.15C196.281 269.015 196.426 268.918 196.589 268.876C196.753 268.835 196.926 268.85 197.08 268.92C202.54 271.42 208.29 272.567 214.33 272.36C214.737 272.347 214.943 272.544 214.95 272.95ZM241.46 106.45C241.46 98.21 238.187 90.3072 232.36 84.4804C226.533 78.6537 218.63 75.3802 210.39 75.3802C202.15 75.3802 194.247 78.6537 188.42 84.4804C182.593 90.3072 179.32 98.21 179.32 106.45C179.32 114.691 182.593 122.593 188.42 128.42C194.247 134.247 202.15 137.52 210.39 137.52C218.63 137.52 226.533 134.247 232.36 128.42C238.187 122.593 241.46 114.691 241.46 106.45Z" fill="#39A935"/>
<path d="M214.33 272.36C208.29 272.567 202.54 271.42 197.08 268.92C196.926 268.85 196.753 268.834 196.589 268.876C196.426 268.918 196.281 269.015 196.18 269.15L179.96 291.46C179.922 291.512 179.895 291.571 179.881 291.634C179.866 291.697 179.865 291.762 179.876 291.825C179.887 291.889 179.911 291.949 179.946 292.003C179.981 292.058 180.027 292.104 180.08 292.14C187.287 297.02 194.487 301.94 201.68 306.9C205.367 309.44 207.87 311.73 209.19 313.77C215.6 323.74 210.49 337.35 199.01 340.52C192.1 342.43 187.35 340.25 181.19 336.05C170.57 328.81 159.96 321.557 149.36 314.29C144.667 311.07 141.647 308.46 140.3 306.46C134.32 297.53 139.06 287.07 144.74 279.28C154.667 265.653 164.673 251.893 174.76 238C175.078 237.565 175.25 237.039 175.25 236.5V188C175.25 187.682 175.141 187.372 174.94 187.12C161.533 170.187 148.117 153.253 134.69 136.32C129.92 130.3 128.42 125.51 130.55 118.27C136.863 96.7966 143.213 75.3333 149.6 53.88C151.187 48.5533 152.283 45.3566 152.89 44.29C159.98 31.86 179.69 35.91 181.26 50.38C181.487 52.5133 181.033 55.5066 179.9 59.36C173.887 79.74 167.837 100.09 161.75 120.41C161.657 120.737 161.713 121.033 161.92 121.3L187.36 153.42C187.408 153.479 187.468 153.529 187.536 153.565C187.603 153.601 187.677 153.623 187.753 153.631C187.83 153.638 187.907 153.631 187.98 153.608C188.053 153.586 188.121 153.549 188.18 153.5C201.4 142.3 219.49 141.37 234.04 150.61C234.149 150.682 234.281 150.709 234.411 150.687C234.54 150.664 234.658 150.594 234.74 150.49L257.71 121.49C257.852 121.307 257.949 121.094 257.992 120.868C258.036 120.642 258.025 120.41 257.96 120.19C251.967 100.097 246.007 80.0433 240.08 60.03C238.847 55.8833 238.3 52.8066 238.44 50.8C239.07 41.98 246.97 36.13 255.75 37.01C260.063 37.4433 263.42 39.3266 265.82 42.66C266.993 44.2866 268.333 47.6366 269.84 52.71C276.34 74.55 282.827 96.3933 289.3 118.24C291.39 125.27 289.76 130.45 285.11 136.31C273.763 150.61 262.477 164.85 251.25 179.03C250.943 179.423 250.79 179.87 250.79 180.37C250.7 243.75 250.51 307.14 250.49 370.53C250.49 374.057 250.057 376.803 249.19 378.77C246.53 384.83 240.97 388.4 234.26 388.49C232.09 388.51 229.65 388.7 227.62 388.11C219.133 385.637 214.907 379.85 214.94 370.75C215.06 338.15 215.063 305.55 214.95 272.95C214.943 272.543 214.737 272.347 214.33 272.36Z" fill="white"/>
<path d="M210.39 137.52C227.549 137.52 241.46 123.609 241.46 106.45C241.46 89.2904 227.549 75.3799 210.39 75.3799C193.231 75.3799 179.32 89.2904 179.32 106.45C179.32 123.609 193.231 137.52 210.39 137.52Z" fill="white"/>
</g>
<defs>
<clipPath id="clip0_5723_43804">
<rect width="421" height="421" fill="white"/>
</clipPath>
</defs>
</svg>
