<svg width="421" height="422" viewBox="0 0 421 422" fill="none" xmlns="http://www.w3.org/2000/svg">
<g clip-path="url(#clip0_5723_43811)">
<path d="M421 81.1301V341.73C416.24 385.77 382.65 418.58 338.36 421.5H83.75C54.17 419.133 31.3433 406.04 15.27 382.22C8.27667 371.853 3.83333 360.263 1.94 347.45C1.30667 343.17 0.993333 336.52 1 327.5C1.01333 249.587 1.01 171.67 0.99 93.7501C0.983333 85.3034 1.40333 78.6668 2.25 73.8401C8.76 36.6601 38.29 7.19012 76.04 2.07012C80.1133 1.52345 86.7667 1.25012 96 1.25012C172.667 1.25678 249.33 1.25678 325.99 1.25012C335.21 1.24345 341.867 1.52012 345.96 2.08012C386.78 7.61012 416.64 40.3101 421 81.1301ZM251.46 75.9401C251.46 67.7025 248.188 59.8023 242.363 53.9774C236.538 48.1525 228.638 44.8801 220.4 44.8801C212.162 44.8801 204.262 48.1525 198.437 53.9774C192.612 59.8023 189.34 67.7025 189.34 75.9401C189.34 84.1777 192.612 92.078 198.437 97.9028C204.262 103.728 212.162 107 220.4 107C228.638 107 236.538 103.728 242.363 97.9028C248.188 92.078 251.46 84.1777 251.46 75.9401ZM244.75 178.26C244.75 177.833 244.9 177.777 245.2 178.09C251.633 184.803 258.087 191.54 264.56 198.3C269.89 203.87 277.36 207.61 285.06 204.2C286.66 203.493 288.547 202.057 290.72 199.89C297.667 192.963 304.607 186.023 311.54 179.07C314.053 176.543 315.673 174.387 316.4 172.6C321.51 159.97 308.59 147.44 296.12 152.8C294.353 153.56 292.203 155.2 289.67 157.72C286.057 161.3 282.503 164.85 279.01 168.37C278.797 168.59 278.583 168.59 278.37 168.37C265.67 155.163 253.1 142.07 240.66 129.09C237.687 125.977 234.93 123.4 232.39 121.36C222.53 113.45 208.86 112.07 197.49 117.47C196.743 117.823 192.17 120.787 183.77 126.36C169.043 136.113 154.33 145.88 139.63 155.66C135.65 158.307 133.063 160.56 131.87 162.42C129.42 166.25 128.79 171.32 130.54 175.81C131.4 178.03 131.94 180.26 133.07 182.25C137.617 190.277 142.22 198.27 146.88 206.23C149.133 210.09 151.19 212.677 153.05 213.99C163.78 221.58 179.01 211.89 176.85 199C176.503 196.947 175.02 193.66 172.4 189.14C169.88 184.793 167.38 180.477 164.9 176.19C164.84 176.087 164.822 175.965 164.85 175.85C164.878 175.734 164.95 175.634 165.05 175.57L178.16 166.9C178.214 166.866 178.276 166.848 178.34 166.846C178.403 166.844 178.467 166.859 178.522 166.89C178.578 166.92 178.625 166.965 178.658 167.02C178.691 167.074 178.709 167.136 178.71 167.2C178.743 187.193 178.823 207.293 178.95 227.5C178.97 229.76 179.29 231.97 179 234.15C176.56 253.103 174.15 272.103 171.77 291.15C171.749 291.33 171.679 291.501 171.566 291.645C171.453 291.788 171.302 291.897 171.13 291.96C153.143 298.627 135.1 305.323 117 312.05C112.673 313.65 109.703 315.127 108.09 316.48C95.45 327.01 103.44 348.21 119.99 347.77C122.257 347.703 125.68 346.82 130.26 345.12C150.227 337.707 170.2 330.293 190.18 322.88C194.947 321.113 198.237 319.427 200.05 317.82C203.157 315.067 204.977 311.627 205.51 307.5C207.517 292.027 209.493 276.487 211.44 260.88C211.45 260.786 211.494 260.7 211.565 260.637C211.635 260.574 211.726 260.54 211.82 260.54C215.24 260.573 218.58 260.07 221.84 259.03C221.995 258.978 222.164 258.978 222.319 259.03C222.474 259.083 222.608 259.184 222.7 259.32L240.19 284.82C240.417 285.147 240.503 285.507 240.45 285.9C237.31 311.147 234.197 336.397 231.11 361.65C230.563 366.097 230.49 369.333 230.89 371.36C233.69 385.6 251.86 389.61 261.48 379.55C263.987 376.93 265.453 373.86 265.88 370.34C269.34 342.14 272.817 313.937 276.31 285.73C276.67 282.797 276.693 280.303 276.38 278.25C275.907 275.157 275.093 272.763 273.94 271.07C264.5 257.23 255 243.367 245.44 229.48C244.991 228.822 244.75 228.041 244.75 227.24V178.26Z" fill="#EE7400"/>
<path d="M220.4 107C237.554 107 251.46 93.0938 251.46 75.9399C251.46 58.7859 237.554 44.8799 220.4 44.8799C203.246 44.8799 189.34 58.7859 189.34 75.9399C189.34 93.0938 203.246 107 220.4 107Z" fill="white"/>
<path d="M244.75 178.26V227.24C244.75 228.042 244.991 228.822 245.44 229.48C255 243.367 264.5 257.23 273.94 271.07C275.093 272.763 275.907 275.157 276.38 278.25C276.693 280.303 276.67 282.797 276.31 285.73C272.817 313.937 269.34 342.14 265.88 370.34C265.453 373.86 263.987 376.93 261.48 379.55C251.86 389.61 233.69 385.6 230.89 371.36C230.49 369.333 230.563 366.097 231.11 361.65C234.197 336.397 237.31 311.147 240.45 285.9C240.503 285.507 240.417 285.147 240.19 284.82L222.7 259.32C222.608 259.184 222.474 259.083 222.319 259.03C222.164 258.978 221.995 258.978 221.84 259.03C218.58 260.07 215.24 260.573 211.82 260.54C211.726 260.54 211.635 260.574 211.565 260.637C211.494 260.7 211.45 260.786 211.44 260.88C209.493 276.487 207.517 292.027 205.51 307.5C204.977 311.627 203.157 315.067 200.05 317.82C198.237 319.427 194.947 321.113 190.18 322.88C170.2 330.293 150.227 337.707 130.26 345.12C125.68 346.82 122.257 347.703 119.99 347.77C103.44 348.21 95.45 327.01 108.09 316.48C109.703 315.127 112.673 313.65 117 312.05C135.1 305.323 153.143 298.627 171.13 291.96C171.302 291.897 171.453 291.788 171.566 291.645C171.679 291.502 171.749 291.33 171.77 291.15C174.15 272.103 176.56 253.103 179 234.15C179.29 231.97 178.97 229.76 178.95 227.5C178.823 207.293 178.743 187.193 178.71 167.2C178.709 167.136 178.691 167.074 178.658 167.02C178.625 166.965 178.578 166.92 178.522 166.89C178.467 166.859 178.404 166.844 178.34 166.846C178.276 166.848 178.214 166.867 178.16 166.9L165.05 175.57C164.95 175.634 164.878 175.734 164.85 175.85C164.822 175.966 164.84 176.087 164.9 176.19C167.38 180.477 169.88 184.793 172.4 189.14C175.02 193.66 176.503 196.947 176.85 199C179.01 211.89 163.78 221.58 153.05 213.99C151.19 212.677 149.133 210.09 146.88 206.23C142.22 198.27 137.617 190.277 133.07 182.25C131.94 180.26 131.4 178.03 130.54 175.81C128.79 171.32 129.42 166.25 131.87 162.42C133.063 160.56 135.65 158.307 139.63 155.66C154.33 145.88 169.043 136.113 183.77 126.36C192.17 120.787 196.743 117.823 197.49 117.47C208.86 112.07 222.53 113.45 232.39 121.36C234.93 123.4 237.687 125.977 240.66 129.09C253.1 142.07 265.67 155.163 278.37 168.37C278.583 168.59 278.797 168.59 279.01 168.37C282.503 164.85 286.057 161.3 289.67 157.72C292.203 155.2 294.353 153.56 296.12 152.8C308.59 147.44 321.51 159.97 316.4 172.6C315.673 174.387 314.053 176.543 311.54 179.07C304.607 186.023 297.667 192.963 290.72 199.89C288.547 202.057 286.66 203.493 285.06 204.2C277.36 207.61 269.89 203.87 264.56 198.3C258.087 191.54 251.633 184.803 245.2 178.09C244.9 177.777 244.75 177.833 244.75 178.26Z" fill="white"/>
</g>
<defs>
<clipPath id="clip0_5723_43811">
<rect width="421" height="421" fill="white" transform="translate(0 0.5)"/>
</clipPath>
</defs>
</svg>
