<svg width="200" height="200" viewBox="0 0 200 200" fill="none" xmlns="http://www.w3.org/2000/svg">
<g clip-path="url(#clip0_5727_57898)">
<path d="M200 35.2018V165.297C196.333 184.755 180.903 198.732 161.097 200H40.1378C26.2534 198.895 15.4933 192.792 7.85754 181.691C4.31043 176.529 2.09982 170.751 1.22571 164.356C0.959677 162.408 0.82666 159.248 0.82666 154.874C0.832994 118.332 0.832994 81.7925 0.82666 45.2541C0.82666 40.9912 0.975512 37.8305 1.27322 35.7719C3.90029 17.7386 18.1853 3.41083 36.2471 0.798006C38.2835 0.50347 41.4427 0.356201 45.7245 0.356201C82.3041 0.359368 118.884 0.359368 155.463 0.356201C159.802 0.356201 162.961 0.495552 164.941 0.774253C183.05 3.33482 196.717 17.2588 200 35.2018ZM117.696 34.4085C117.696 30.4951 116.141 26.742 113.374 23.9749C110.607 21.2077 106.854 19.6531 102.941 19.6531C99.0273 19.6531 95.2742 21.2077 92.5071 23.9749C89.7399 26.742 88.1853 30.4951 88.1853 34.4085C88.1853 38.3218 89.7399 42.0749 92.5071 44.8421C95.2742 47.6092 99.0273 49.1638 102.941 49.1638C106.854 49.1638 110.607 47.6092 113.374 44.8421C116.141 42.0749 117.696 38.3218 117.696 34.4085ZM118.143 83.0498C119.81 84.6412 121.292 86.5747 123.169 87.7291C124.296 88.4259 125.31 88.9294 126.209 89.2398C130.675 90.7822 135.147 92.3198 139.625 93.8526C141.36 94.448 142.77 94.7077 143.853 94.6317C150.508 94.1804 153.107 85.5961 147.71 81.6531C146.941 81.0925 145.424 80.4306 143.159 79.6674C139.276 78.3594 135.384 77.0245 131.482 75.6626C131.302 75.6024 131.147 75.5027 131.017 75.3633C125.826 69.9508 120.614 64.513 115.382 59.0498C110 53.4298 103.335 50.6555 95.6913 53.9286C94.5511 54.4164 93.1418 55.3158 91.4632 56.627C83.8908 62.5557 76.3136 68.4765 68.7316 74.3895C66.7316 75.9476 65.4252 77.3301 65.1164 79.6911C64.8077 82.0854 65.0689 85.5248 65.0879 87.3301C65.1418 92.7014 65.221 98.0712 65.3255 103.439C65.3603 105.264 65.5297 106.575 65.8338 107.373C68.0238 113.164 76.8552 113.435 79.221 107.739C79.6358 106.741 79.8338 105.118 79.8148 102.869C79.7704 97.6373 79.6913 92.4053 79.5773 87.1733C79.5582 86.334 79.5598 85.4789 79.582 84.608C79.5833 84.5413 79.5998 84.4755 79.6302 84.4155C79.6606 84.3555 79.7042 84.3028 79.7578 84.2612L86.2946 79.1591C86.322 79.1376 86.355 79.1244 86.3896 79.1208C86.4242 79.1172 86.4592 79.1235 86.4904 79.1389C86.5216 79.1542 86.5479 79.1781 86.5662 79.2077C86.5845 79.2373 86.5941 79.2715 86.5939 79.3063C86.559 87.3507 86.5622 95.4378 86.6034 103.568C86.6192 106.766 86.4989 109.925 86.2423 113.045C84.6271 132.652 82.9961 152.256 81.3492 171.857C81.1497 174.22 81.1339 175.88 81.3017 176.836C83.278 188.18 97.1069 186.874 98.0096 175.891C99.4791 158.089 100.957 140.252 102.442 122.38C102.449 122.307 102.482 122.238 102.537 122.188C102.591 122.137 102.662 122.107 102.736 122.104C104.833 122.038 106.835 121.569 108.741 120.698C108.906 120.625 109.047 120.655 109.164 120.789L115.34 127.772C115.481 127.931 115.558 128.137 115.558 128.351C115.558 140.339 115.558 152.355 115.558 164.399C115.558 168.128 115.953 170.865 118.817 172.993C123.268 176.299 129.748 174.679 131.782 169.615C132.209 168.551 132.423 167.002 132.423 164.969C132.426 151.971 132.424 138.972 132.418 125.971C132.418 123.373 131.748 120.779 130.166 118.983C126.198 114.492 122.209 109.979 118.2 105.444C118.028 105.248 117.934 104.998 117.934 104.741V83.14C117.934 82.9469 118.003 82.9168 118.143 83.0498Z" fill="#813962"/>
</g>
<defs>
<clipPath id="clip0_5727_57898">
<rect width="200" height="200" fill="white"/>
</clipPath>
</defs>
</svg>
