<svg width="200" height="200" viewBox="0 0 200 200" fill="none" xmlns="http://www.w3.org/2000/svg">
<path d="M50.2699 99.93C49.9899 98.9967 49.8466 99.0167 49.8399 99.99C49.6899 116.71 46.4999 133.05 45.2799 149.77C44.4999 160.49 44.1632 172.983 44.2699 187.25C44.2799 189.09 42.9099 189.98 41.1199 189.99C31.5732 190.003 22.0332 190.007 12.4999 190C11.8297 189.997 11.1877 189.731 10.7138 189.259C10.2399 188.787 9.97254 188.148 9.96989 187.48C9.90989 159.36 12.2199 131.55 14.9999 103.48C16.1599 91.68 15.8299 79.85 15.8399 68.01C15.8499 54.67 22.6899 42.36 33.9899 35.59C36.9966 33.7833 42.8232 31.6433 51.4699 29.17C59.3632 26.9033 65.8799 24.9367 71.0199 23.27C76.3899 21.52 78.1399 15.9 80.2799 11.27C80.4567 10.8908 80.7368 10.5699 81.0876 10.3449C81.4383 10.12 81.845 10.0003 82.2599 10H117.74C118.162 10.0002 118.574 10.1235 118.926 10.3545C119.278 10.5855 119.554 10.9142 119.72 11.3C121.94 16.5 124.05 22.15 130.21 23.87C136.29 25.57 142.357 27.3067 148.41 29.08C156.763 31.5267 162.637 33.75 166.03 35.75C178.13 42.8767 184.227 54.2133 184.32 69.76C184.413 86.1667 184.72 97.66 185.24 104.24C185.993 113.847 186.83 123.45 187.75 133.05C189.52 151.55 190.1 169.42 189.98 187.6C189.977 188.237 189.721 188.848 189.268 189.298C188.814 189.747 188.2 190 187.56 190C178.247 190 168.873 190 159.44 190C156.57 190.01 155.64 189.1 155.72 186.25C156.17 170.47 155.7 152.12 153.37 135C151.72 122.79 150.29 111.19 150.07 98.81C150.063 98.37 149.983 98.3567 149.83 98.77C143.4 116.4 140.59 137.65 146.54 155.99C149.65 165.56 149.45 177.47 149.15 187.65C149.134 188.279 148.872 188.876 148.42 189.316C147.968 189.755 147.361 190 146.73 190H53.2799C52.6464 190 52.0376 189.754 51.5822 189.314C51.1269 188.873 50.8607 188.273 50.8399 187.64C50.4899 176.22 50.4599 165.6 53.9299 154.31C59.6099 135.81 55.6099 117.83 50.2699 99.93ZM151.43 80.28C154.05 79.34 155.15 81.29 155.08 83.63C154.667 98.71 155.473 113.703 157.5 128.61C158.82 138.33 159.603 144.947 159.85 148.46C160.697 160.413 160.997 172.403 160.75 184.43C160.749 184.496 160.761 184.563 160.785 184.624C160.81 184.686 160.846 184.743 160.893 184.79C160.939 184.838 160.995 184.875 161.056 184.901C161.118 184.927 161.183 184.94 161.25 184.94H184.7C184.764 184.94 184.825 184.915 184.87 184.87C184.915 184.825 184.94 184.764 184.94 184.7C184.953 172.147 184.627 159.58 183.96 147C183.37 135.91 180.82 117.77 179.95 103.68C179.2 91.47 179.33 81.9 179.16 71C178.96 57.98 175.49 47.98 164.62 40.75C161.867 38.9167 157.463 37.0833 151.41 35.25C144.47 33.15 137.52 31.0667 130.56 29C121.53 26.31 120.2 23.21 116.12 15.53C116.039 15.3792 115.918 15.2531 115.77 15.1651C115.622 15.0771 115.453 15.0304 115.28 15.03H84.4899C84.1699 15.03 83.9499 15.18 83.8299 15.48C81.0499 22.5 78.0799 26.61 70.7699 28.8C64.2832 30.7533 57.7732 32.6367 51.2399 34.45C44.6932 36.2633 39.9966 38.0067 37.1499 39.68C28.4499 44.7867 23.1999 52.2967 21.3999 62.21C20.9599 64.6367 20.8232 70.85 20.9899 80.85C21.1766 91.8433 20.7566 101.393 19.7299 109.5C16.5832 134.427 15.0332 159.507 15.0799 184.74C15.0799 184.798 15.102 184.854 15.1414 184.896C15.1808 184.937 15.2342 184.96 15.2899 184.96H38.7499C38.8164 184.96 38.8822 184.947 38.9436 184.921C39.0049 184.895 39.0605 184.858 39.107 184.81C39.1536 184.763 39.1902 184.706 39.2147 184.644C39.2393 184.583 39.2512 184.516 39.2499 184.45C39.0366 173.223 39.3099 162.003 40.0699 150.79C40.7799 140.35 43.1599 126.93 43.9599 117.75C44.7399 108.837 45.0832 97.27 44.9899 83.05C44.9799 81.25 45.6199 80.11 47.4899 80.04C47.9782 80.0248 48.4587 80.1636 48.8627 80.4366C49.2667 80.7095 49.5737 81.1027 49.7399 81.56C54.9332 95.7533 58.7299 110.4 61.1299 125.5C62.3566 133.227 62.0932 140.88 60.3399 148.46C58.9199 154.58 56.9699 161.07 56.3399 166.95C55.7332 172.717 55.5899 178.537 55.9099 184.41C55.9299 184.777 56.1232 184.96 56.4899 184.96H97.0099C97.1345 184.96 97.2541 184.91 97.3422 184.822C97.4304 184.734 97.4799 184.615 97.4799 184.49V128.81C97.4794 128.282 97.683 127.773 98.0482 127.391C98.4134 127.009 98.912 126.783 99.4399 126.76L99.9399 126.73C101.66 126.643 102.52 127.463 102.52 129.19V184.24C102.52 184.72 102.76 184.96 103.24 184.96H143.51C143.87 184.96 144.057 184.78 144.07 184.42C144.45 176.29 144.35 166.2 141.82 158.11C140.527 153.95 139.783 151.323 139.59 150.23C135.41 126.17 142.24 103.91 150.16 81.56C150.263 81.2663 150.431 80.9992 150.65 80.7778C150.87 80.5565 151.136 80.3864 151.43 80.28Z" fill="black"/>
<path d="M96.43 49.44C92.33 66.31 83.92 80.11 69.15 89.7C68.9375 89.8372 68.6999 89.9311 68.451 89.9762C68.202 90.0214 67.9466 90.0169 67.6994 89.963C67.4523 89.9091 67.2182 89.8068 67.0106 89.6622C66.803 89.5175 66.6261 89.3333 66.49 89.12L66.24 88.73C65.3067 87.2767 65.56 86.07 67 85.11C80.59 76.07 87.61 63.54 91.65 47.95C91.7751 47.4674 92.0751 47.0483 92.4923 46.7733C92.9095 46.4982 93.4145 46.3866 93.91 46.46L94.48 46.54C96.1934 46.7933 96.8434 47.76 96.43 49.44Z" fill="black"/>
<path d="M130.88 89.72C116.11 80.26 107.63 66.24 103.55 49.48C103.137 47.78 103.793 46.8 105.52 46.54L106.1 46.46C106.577 46.3892 107.063 46.4956 107.466 46.7591C107.87 47.0226 108.163 47.425 108.29 47.89C112.54 63.64 119.13 75.76 132.95 85.1C134.337 86.04 134.607 87.2367 133.76 88.69L133.52 89.09C133.392 89.3087 133.221 89.4993 133.017 89.6502C132.813 89.8011 132.581 89.9093 132.334 89.9681C132.088 90.027 131.832 90.0353 131.582 89.9927C131.332 89.95 131.093 89.8573 130.88 89.72Z" fill="black"/>
<path d="M100.15 68.42H99.8502C98.5468 68.42 97.4902 69.4766 97.4902 70.78V105.9C97.4902 107.203 98.5468 108.26 99.8502 108.26H100.15C101.454 108.26 102.51 107.203 102.51 105.9V70.78C102.51 69.4766 101.454 68.42 100.15 68.42Z" fill="black"/>
<path d="M89.8901 150.54C85.0301 159.847 77.9301 166.897 68.5901 171.69C68.1246 171.929 67.5881 171.99 67.0805 171.864C66.5729 171.737 66.1286 171.43 65.8302 171L65.4601 170.49C64.4868 169.09 64.7568 168 66.2701 167.22C74.8635 162.773 81.3468 156.24 85.7201 147.62C85.9403 147.188 86.3182 146.857 86.7748 146.696C87.2314 146.536 87.7314 146.559 88.1701 146.76L88.6902 147C90.3302 147.753 90.7301 148.933 89.8901 150.54Z" fill="black"/>
<path d="M114.24 147.59C118.606 156.23 125.093 162.767 133.7 167.2C135.186 167.967 135.47 169.047 134.55 170.44L134.19 170.98C133.902 171.419 133.462 171.737 132.955 171.872C132.447 172.006 131.908 171.949 131.44 171.71C122.046 166.91 114.91 159.833 110.03 150.48C109.25 148.973 109.616 147.843 111.13 147.09L111.77 146.77C112.204 146.552 112.708 146.516 113.171 146.669C113.634 146.823 114.018 147.154 114.24 147.59Z" fill="black"/>
</svg>
