<svg width="200" height="200" viewBox="0 0 200 200" fill="none" xmlns="http://www.w3.org/2000/svg">
<path d="M50.27 99.93C49.99 98.9967 49.8467 99.0167 49.84 99.99C49.69 116.71 46.5 133.05 45.28 149.77C44.5 160.49 44.1633 172.983 44.27 187.25C44.28 189.09 42.91 189.98 41.12 189.99C31.5733 190.003 22.0333 190.007 12.5 190C11.8298 189.997 11.1879 189.731 10.714 189.259C10.2401 188.787 9.97266 188.148 9.97002 187.48C9.91002 159.36 12.22 131.55 15 103.48C16.16 91.68 15.83 79.85 15.84 68.01C15.85 54.67 22.69 42.36 33.99 35.59C36.9967 33.7833 42.8233 31.6433 51.47 29.17C59.3633 26.9033 65.88 24.9367 71.02 23.27C76.39 21.52 78.14 15.9 80.28 11.27C80.4568 10.8908 80.737 10.5699 81.0877 10.3449C81.4384 10.12 81.8451 10.0003 82.26 10H117.74C118.162 10.0002 118.574 10.1235 118.926 10.3545C119.278 10.5855 119.554 10.9142 119.72 11.3C121.94 16.5 124.05 22.15 130.21 23.87C136.29 25.57 142.357 27.3067 148.41 29.08C156.763 31.5267 162.637 33.75 166.03 35.75C178.13 42.8767 184.227 54.2133 184.32 69.76C184.413 86.1667 184.72 97.66 185.24 104.24C185.993 113.847 186.83 123.45 187.75 133.05C189.52 151.55 190.1 169.42 189.98 187.6C189.977 188.237 189.721 188.848 189.268 189.298C188.814 189.747 188.2 190 187.56 190C178.247 190 168.873 190 159.44 190C156.57 190.01 155.64 189.1 155.72 186.25C156.17 170.47 155.7 152.12 153.37 135C151.72 122.79 150.29 111.19 150.07 98.81C150.063 98.37 149.983 98.3567 149.83 98.77C143.4 116.4 140.59 137.65 146.54 155.99C149.65 165.56 149.45 177.47 149.15 187.65C149.134 188.279 148.873 188.876 148.42 189.316C147.968 189.755 147.362 190 146.73 190H53.28C52.6465 190 52.0377 189.754 51.5824 189.314C51.127 188.873 50.8608 188.273 50.84 187.64C50.49 176.22 50.46 165.6 53.93 154.31C59.61 135.81 55.61 117.83 50.27 99.93ZM151.43 80.28C154.05 79.34 155.15 81.29 155.08 83.63C154.667 98.71 155.473 113.703 157.5 128.61C158.82 138.33 159.603 144.947 159.85 148.46C160.697 160.413 160.997 172.403 160.75 184.43C160.749 184.496 160.761 184.563 160.785 184.624C160.81 184.686 160.846 184.743 160.893 184.79C160.939 184.838 160.995 184.875 161.056 184.901C161.118 184.927 161.184 184.94 161.25 184.94H184.7C184.764 184.94 184.825 184.915 184.87 184.87C184.915 184.825 184.94 184.764 184.94 184.7C184.953 172.147 184.627 159.58 183.96 147C183.37 135.91 180.82 117.77 179.95 103.68C179.2 91.47 179.33 81.9 179.16 71C178.96 57.98 175.49 47.98 164.62 40.75C161.867 38.9167 157.463 37.0833 151.41 35.25C144.47 33.15 137.52 31.0667 130.56 29C121.53 26.31 120.2 23.21 116.12 15.53C116.039 15.3792 115.918 15.2531 115.77 15.1651C115.622 15.0771 115.453 15.0304 115.28 15.03H84.49C84.17 15.03 83.95 15.18 83.83 15.48C81.05 22.5 78.08 26.61 70.77 28.8C64.2833 30.7533 57.7734 32.6367 51.24 34.45C44.6934 36.2633 39.9967 38.0067 37.15 39.68C28.45 44.7867 23.2 52.2967 21.4 62.21C20.96 64.6367 20.8233 70.85 20.99 80.85C21.1767 91.8433 20.7567 101.393 19.73 109.5C16.5833 134.427 15.0333 159.507 15.08 184.74C15.08 184.798 15.1021 184.854 15.1415 184.896C15.1809 184.937 15.2343 184.96 15.29 184.96H38.75C38.8165 184.96 38.8824 184.947 38.9437 184.921C39.005 184.895 39.0606 184.858 39.1072 184.81C39.1537 184.763 39.1903 184.706 39.2149 184.644C39.2394 184.583 39.2513 184.516 39.25 184.45C39.0367 173.223 39.31 162.003 40.07 150.79C40.78 140.35 43.16 126.93 43.96 117.75C44.74 108.837 45.0834 97.27 44.99 83.05C44.98 81.25 45.62 80.11 47.49 80.04C47.9784 80.0248 48.4588 80.1636 48.8628 80.4366C49.2669 80.7095 49.5739 81.1027 49.74 81.56C54.9334 95.7533 58.73 110.4 61.13 125.5C62.3567 133.227 62.0933 140.88 60.34 148.46C58.92 154.58 56.97 161.07 56.34 166.95C55.7333 172.717 55.59 178.537 55.91 184.41C55.93 184.777 56.1234 184.96 56.49 184.96H97.01C97.1347 184.96 97.2542 184.91 97.3424 184.822C97.4305 184.734 97.48 184.615 97.48 184.49V128.81C97.4795 128.282 97.6831 127.773 98.0483 127.391C98.4135 127.009 98.9121 126.783 99.44 126.76L99.94 126.73C101.66 126.643 102.52 127.463 102.52 129.19V184.24C102.52 184.72 102.76 184.96 103.24 184.96H143.51C143.87 184.96 144.057 184.78 144.07 184.42C144.45 176.29 144.35 166.2 141.82 158.11C140.527 153.95 139.783 151.323 139.59 150.23C135.41 126.17 142.24 103.91 150.16 81.56C150.263 81.2663 150.431 80.9992 150.65 80.7778C150.87 80.5565 151.136 80.3864 151.43 80.28Z" fill="black"/>
<path d="M96.43 49.44C92.33 66.31 83.92 80.11 69.15 89.7C68.9375 89.8372 68.6999 89.9311 68.451 89.9762C68.202 90.0214 67.9466 90.0169 67.6994 89.963C67.4523 89.9091 67.2182 89.8068 67.0106 89.6622C66.803 89.5175 66.6261 89.3333 66.49 89.12L66.24 88.73C65.3067 87.2767 65.56 86.07 67 85.11C80.59 76.07 87.61 63.54 91.65 47.95C91.7751 47.4674 92.0751 47.0483 92.4923 46.7733C92.9095 46.4982 93.4145 46.3866 93.91 46.46L94.48 46.54C96.1934 46.7933 96.8434 47.76 96.43 49.44Z" fill="black"/>
<path d="M130.88 89.7199C116.11 80.2599 107.63 66.2399 103.55 49.4799C103.137 47.7799 103.793 46.7999 105.52 46.5399L106.1 46.4599C106.577 46.389 107.063 46.4955 107.467 46.759C107.87 47.0225 108.163 47.4249 108.29 47.8899C112.54 63.6399 119.13 75.7599 132.95 85.0999C134.337 86.0399 134.607 87.2365 133.76 88.6899L133.52 89.0899C133.392 89.3086 133.221 89.4992 133.017 89.6501C132.813 89.801 132.581 89.9091 132.334 89.968C132.088 90.0268 131.832 90.0352 131.582 89.9926C131.332 89.9499 131.093 89.8572 130.88 89.7199Z" fill="black"/>
<path d="M100.15 68.4199H99.85C98.5466 68.4199 97.49 69.4765 97.49 70.7799V105.9C97.49 107.203 98.5466 108.26 99.85 108.26H100.15C101.453 108.26 102.51 107.203 102.51 105.9V70.7799C102.51 69.4765 101.453 68.4199 100.15 68.4199Z" fill="black"/>
<path d="M89.89 150.54C85.03 159.847 77.93 166.897 68.59 171.69C68.1244 171.929 67.588 171.991 67.0804 171.864C66.5727 171.737 66.1284 171.43 65.83 171L65.46 170.49C64.4867 169.09 64.7567 168 66.27 167.22C74.8633 162.773 81.3467 156.24 85.72 147.62C85.9402 147.188 86.3181 146.857 86.7747 146.696C87.2313 146.536 87.7313 146.559 88.17 146.76L88.69 147C90.33 147.753 90.73 148.933 89.89 150.54Z" fill="black"/>
<path d="M114.24 147.59C118.607 156.23 125.093 162.767 133.7 167.2C135.187 167.967 135.47 169.047 134.55 170.44L134.19 170.98C133.902 171.419 133.462 171.737 132.955 171.872C132.447 172.006 131.908 171.949 131.44 171.71C122.047 166.91 114.91 159.833 110.03 150.48C109.25 148.973 109.617 147.843 111.13 147.09L111.77 146.77C112.205 146.552 112.709 146.516 113.171 146.669C113.634 146.823 114.019 147.154 114.24 147.59Z" fill="black"/>
</svg>
